/* XPM */
static char *_0adaeb80b8a4d44ed6ec43d0933cd7e6AJd1KgaY0qhKD1U[] = {
/* columns rows colors chars-per-pixel */
"64 64 244 2 ",
"   c None",
".  c #080607",
"X  c #0A0907",
"o  c #0C0B0B",
"O  c #080607",
"+  c #110E0C",
"@  c #150907",
"#  c #14110E",
"$  c #1A160F",
"%  c #110F10",
"&  c #151313",
"*  c #1B1513",
"=  c #1B1816",
"-  c #191718",
";  c #1C1A1A",
":  c #231A15",
">  c #231D1B",
",  c #291D1C",
"<  c #231614",
"1  c #321E1B",
"2  c #2B221E",
"3  c #25211E",
"4  c #37241B",
"5  c #211F20",
"6  c #252322",
"7  c #2C2422",
"8  c #2C2B2A",
"9  c #2A2827",
"0  c #322623",
"q  c #352A24",
"w  c #392B28",
"e  c #323132",
"r  c #3B3836",
"t  c #3D312B",
"y  c #472C26",
"u  c #4B352B",
"i  c #57352B",
"p  c #483B36",
"a  c #5C3B32",
"s  c #543C33",
"d  c #66372D",
"f  c #693934",
"g  c #773936",
"h  c #43413F",
"j  c #4D4437",
"k  c #59433A",
"l  c #63443C",
"z  c #6A4A3E",
"x  c #684539",
"c  c #76473D",
"v  c #65503F",
"b  c #413F40",
"n  c #4B4B4B",
"m  c #464343",
"M  c #564D46",
"N  c #5B524A",
"B  c #55524D",
"V  c #545454",
"C  c #585655",
"Z  c #5B5B5B",
"A  c #4E5150",
"S  c #694C44",
"D  c #714B43",
"F  c #7B4C42",
"G  c #64564B",
"H  c #735146",
"J  c #7C5245",
"K  c #7A574A",
"L  c #645D57",
"P  c #7E5E52",
"I  c #67625D",
"U  c #79655A",
"Y  c #5E5F60",
"T  c #5F6063",
"R  c #6D6C6C",
"E  c #676565",
"W  c #746963",
"Q  c #766C67",
"!  c #79726D",
"~  c #747474",
"^  c #7A7876",
"/  c #873F3D",
"(  c #8C473C",
")  c #844D42",
"_  c #845345",
"`  c #84554B",
"'  c #845A4C",
"]  c #8B5D4C",
"[  c #8B5448",
"{  c #95584A",
"}  c #895D51",
"|  c #995C53",
" . c #984545",
".. c #AD5952",
"X. c #8C6254",
"o. c #89675A",
"O. c #936254",
"+. c #9B6555",
"@. c #9D6D5C",
"#. c #986959",
"$. c #97725D",
"%. c #A3655A",
"&. c #A36B5B",
"*. c #AB6B5D",
"=. c #A86556",
"-. c #A6725E",
";. c #B3685C",
":. c #946D61",
">. c #897369",
",. c #937364",
"<. c #997568",
"1. c #867B76",
"2. c #957D73",
"3. c #836961",
"4. c #AB6C61",
"5. c #A47264",
"6. c #AB7363",
"7. c #AB7C6B",
"8. c #A87A68",
"9. c #B37464",
"0. c #B3766B",
"q. c #B47B6B",
"w. c #BB7B6B",
"e. c #B67765",
"r. c #A87D73",
"t. c #B87E73",
"y. c #BC6E64",
"u. c #C7786A",
"i. c #D87B6E",
"p. c #D1716B",
"a. c #E97C76",
"s. c #C55758",
"d. c #99857A",
"f. c #888079",
"g. c #B7816D",
"h. c #A88577",
"j. c #B88775",
"k. c #A9806D",
"l. c #C6826D",
"z. c #C28472",
"x. c #CA8575",
"c. c #CC8A76",
"v. c #CC8B79",
"b. c #C2897A",
"n. c #D38D7C",
"m. c #D88777",
"M. c #CD957D",
"N. c #D1917E",
"B. c #DA947D",
"V. c #D99378",
"C. c #EA8B77",
"Z. c #E3977E",
"A. c #F1827D",
"S. c #838383",
"D. c #958B88",
"F. c #96928F",
"G. c #B68D84",
"H. c #AA9389",
"J. c #B9948A",
"K. c #A79D98",
"L. c #AB8C83",
"P. c #B7A299",
"I. c #AEA29F",
"U. c #B6AAA4",
"Y. c #B4ADAA",
"T. c #C79584",
"R. c #DC9483",
"E. c #DC9A84",
"W. c #DB9B8B",
"Q. c #D59986",
"!. c #C49A95",
"~. c #CC9087",
"^. c #E19684",
"/. c #E49B84",
"(. c #EB9C85",
"). c #E49C89",
"_. c #EA9D8A",
"`. c #E79586",
"'. c #F19C89",
"]. c #EB9D92",
"[. c #DAA289",
"{. c #CBAB98",
"}. c #DAA791",
"|. c #DEB49C",
" X c #ECA38B",
".X c #E6A689",
"XX c #F3A48C",
"oX c #F3AA8E",
"OX c #F9A88C",
"+X c #E8A995",
"@X c #F4AB93",
"#X c #FBAD92",
"$X c #F7AA99",
"%X c #EBB496",
"&X c #F4B194",
"*X c #FCB495",
"=X c #F5B39C",
"-X c #FCB59A",
";X c #F5BC9C",
":X c #FCBB9B",
">X c #FBBA95",
",X c #FBB18F",
"<X c #CEBAAD",
"1X c #E9BBA5",
"2X c #FDBCA2",
"3X c #FAB6A7",
"4X c #F2ADA1",
"5X c #FAC29E",
"6X c #D8C6BA",
"7X c #F3C1A3",
"8X c #FDC3A4",
"9X c #FDC9A6",
"0X c #FEC5AB",
"qX c #FDCBAC",
"wX c #F5C8AC",
"eX c #FED1AE",
"rX c #FDCDB2",
"tX c #F7CCB6",
"yX c #FDD3B3",
"uX c #FDD4BA",
"iX c #FDDABC",
"pX c #F4D3BB",
"aX c #E8C3AC",
"sX c #FCE1BB",
"dX c #D4C9C4",
"fX c #DBD2CE",
"gX c #CEC6C2",
"hX c #ECD5C8",
"jX c #FDDCC3",
"kX c #F7DBC9",
"lX c #E6DBD6",
"zX c #FCE3C3",
"xX c #FCE8CB",
"cX c #FCE8D8",
"vX c #E9E0DC",
"bX c #EEE8E5",
"nX c #F6EDE7",
"mX c #FDF3ED",
"MX c #FBF4E8",
"NX c #FAF6F4",
"BX c #FDF9F6",
"VX c #FFFFFE",
"CX c #F6F9F8",
"ZX c #E3F0F8",
/* pixels */
"                                                                                                                                ",
"                                                          R ~ R Q R E R R R T E R T                                             ",
"                                                    T R Y C n b h n n A n n m n A V V T T Y Z                                   ",
"                                                Z E A n b b r 9 6 8 8 8 8 8 8 8 e e b b m n n V T                               ",
"                                              L B m r 9 3 9 9 5 - - - - 5 - - ; - 5 6 8 e 8 e r Z E R                           ",
"                                            Z h r r 8 , = 9 3 o O % - - - % - o % - - ; - - ; 9 b E ^ ^                         ",
"                                        V V h 8 > ; ; 8 8 > X X o 5 - - % % % o & . % o % o % & 5 r E ^                         ",
"                                        V b 8 6 ; * 2 ; 6 * & & 5 - - 5 o % % o % o . o o o % & - 8 n ~ S.                      ",
"                                      V p 8 6 * = = = 3 0 7 + + & o ; - X % o o o X O o o % . % - 8 A ^                         ",
"                                    A h 8 ; $ # # $ > 7 7 < + + ; 9 $ + X + o o o o O o % O . % - 8 A ^                         ",
"                                  V n w 3 & # # : 4 q 1 , < * , 7 , # & & + # o . o . & & O X o - e V ^                         ",
"                                  C m 2 & # # ; t S K S i l u 4 3 > : > , = * * % o . % % . . o - e C ~                         ",
"                                I Z r 3 $ * > 2 u 6.w.k.e.M.b.} a y w 1 q y w , & % . o o O . o - e C ~                         ",
"                                E C r 7 < 0 2 : z E.).V.c.oX=XoXR.w.#.[ ` K D s 0 ; @ + X X o o - e V ~                         ",
"                                R B e 9 : w 2 4 5.@X#XXXXX#X#XOX XXX X.XR.x.0.] k 0 ; * + X X + - e V ~                         ",
"                                R B p 0 q t u ,.+X-X>X>X:X$X#XOX'.XXXXXX X`.R.t.} l p 0 > + o o & e A ^                         ",
"                              ~ E N h p p j o.}.%X>X:X:X:X*X#XOX#X'.'.XXXX/.B.x.*.} K s y , < * & 8 n ~                         ",
"                              R E N h j j K M..X=X8X8X:X*X*X*X#XOXOXXX'.(.`.Z.c.e.%.O.| H S s w - 8 n ~                         ",
"                              Q I N k v v k.{.%X3X0X8X2X:X-X*X#XOXXXXX(.`.(.Z.c.w.*.%.+.#.} z k 5 5 n S.                        ",
"                              ^ I N N G U j.M.7X0XqXqX0X8X:X-X#X#X'.(.(.(.Z.n.n.z.e.9.&.#.} K K b 8 n F.                        ",
"                              ! L N j v P g..X9XyXyXyXqX0X2X-X*X$XXX_.(.).R.B.n.n.u.w.9.-.#.] O.N e n S.                        ",
"                              ^ U N N G k.V.%XeXrXuXuXrX9X8X-X@X@XoX_.).).R.R.n.c.c.l.q.*.&.] #.} h V S.                        ",
"                              1.W N v o.[.wXeXyXyXiXiXyX9X8X-X-X@XoX X).).R.R.n.v.c.z.w.9.&.+.#.o.m V                           ",
"                              ! W G l j.8XeXeXyXiXiXiXuX0X2X2X$XXX X_.).).R.R.R.c.c.x.z.e.-.@.@.:.B Z                           ",
"                              W W N P 7X9X9XeXyXyXyXqX0X0X2X2X3X$X).^.^.).R.).R.n.x.x.u.q.6.5.-.:.V R                           ",
"                              B U v k.5X8X9XqX2X}.M.c.~.[.@X=X$X$X X^.R.R.R.).).n.x.x.z.w.7.6.@.:.L ^                           ",
"                      3XuX1XH.j L k M.9X8X9X>Xg.] J a u v X.j.M.E.W.n.^.R.R.].).R.v.v.z.q.6.6.@.:.L D.                          ",
"                    3X+XkXrX/.,.j v %X9X9X9XZ.M.}.Q.k.s : $ 2 4 a | 6.~.R.R.R.~.~.x.0.0.6.7.6.@.2.Q                             ",
"                    3X].cXpX0XM.j $.5X5X5X5X5XeXeXqX;XQ.#.s $ @ 1 x *.N.u.w.0.` S a x K } O.:.:.r.S.                            ",
"                    3X4XxXzXsXwXK j.5X5X5XeX9X%Xz.g.$.K _ c ' ] ] e././.w.9.} y * . X * > 0 a 3.2.F.                            ",
"                    3X3XzXzX9X5Xk.V.9XeXeX9X,X( d U e @ 4 i d =.V.,X0X&Xz.@.x 4 < * # < , , 5 M 2.I.                            ",
"                    3X3XtX2XC.>XM..X9X9XeX5X,XZ.}.}.K i ,.<.i ( l.8XeX*Xg._ f a s S ' :.<.} S p W                               ",
"                    tX$X4X&XoXyX[.*X0X9XeX9X:X>X5X>XV.-.+.( c e.Z.5X5XZ.u.x y i u p s l K O.:.L R                               ",
"                      $X$X5XsXzX&X>X5X9XeX9X;X>X*X.XB.j.=.+.;.m.,X:X*X'.;.x y i S * & 8 w k ' o.U H.                            ",
"                      3X-X@X8XzX8X5X9XqXyXeX0X:X*X.XZ.V.V.Z.(.XX>X*X*XZ.*.c i k K s s G , 4 H U 2.!.                            ",
"                        wXuX&XiX9X5XqXyXiXuXqX8X*XoXZ.V.Z.,X,X:X:X:X#XC.9.( x x z ` ` D f i H U r.J.                            ",
"                        zXuXzXzX0X8XrXiXjXuXqX2X:X#X_.Z.`.OX#X:X2X0X2XC.;._ c ( J [ ] ' _ ' } o.h.J.                            ",
"                          zXzXzX9X8XyXiXiXiXuXqX2X=X@XXXXX*X:X2X:XrX0X'.;.[ _ ] [ | +.+.O.} X.r.~.!.                            ",
"                            xXzXqX9XyXiXiXjXjXuX0X=X@X@X-X2XqX0X2X2X2X'.=._ _ { | %.*.&.&.O.O.G.J.                              ",
"                              cXtXqXyXeXuXkXzXiX8X=X@X).(.#X-X*X3X-X-X(.;.( ] { %.6.w.6.5.#.:.J.!.                              ",
"                                uXyXyXeXyXiXyXyX=X XB.y.i.OX$X#X$X*X$XZ.4.) [ | 4.0.u.t.6.5.r.~.{.                              ",
"                                jXuXyXeXeXyXqX8X@Xn.;...m.-X2X3X0X0XXXR.y.) c | 4.0.u.t.7.r.r.!.                                ",
"                                cXuXyXyXeXqX8X@Xc.=...~.=X$XC.u.#X2X(.R.+.F d ) | 0.t.t.t.h.G.                                  ",
"                                cXuXyXeXeX8X;Xc.+.@.Q.4X$X+X].].(.^.w.+.d g f f [ y.0.G.h.G.!.                                  ",
"                                cXiXyXqXqX9X[.e.j.T.[.[..X).R.v.| F l u i c D i ` 4.0.j.L.P.                                    ",
"                                cXiXeXeX9X8XM.g.g.z.E.N.Q.~.v.6.S S H a a l D z ` 4.t.h.L.                                      ",
"                                cXiXyX9X5X5XV.-.{ { i.`.).R.m.e.H } } D f x S D | 8.r.L.P.                                      ",
"                                cXiXeXeX5X5XZ.c.E.+Xa.a.i.i.p.p.%.4.| K H M s l } r.r.h.                                        ",
"                                MXiXqX;X;X;X.XoX>X8X2X'.A.p... . ./ g d i y l K <.j.h.H.                                        ",
"                                MXkXtX2X;X;X>X>X>X:X0X=X'.A.s.s... .g g x ] -.-.j.h.d.H.                                        ",
"                                  xXtXwX5X5X5X>X-X*X:X X/.m.i.u.....| { %.b.g.g.h.d.P.                                          ",
"                                  cXhXtX7X5X9X9X=X,X*XoXm.*.H z F ` c ] e.g.g.k.<.H.                                            ",
"                                  MXkXtXwX5X;X5X5X>X&X&XoXv.o.D ` J } e.g.7.8.,.d.                                              ",
"                                  MXxXpXtX1X|.5X5X5X2X3X=X+XQ.q.4.0.j.g.7.8.,.d.Y.                                              ",
"                                  BXMXkXpXaX|.|.aX1X%X}.Q.W.[.j.8.7.7.8.<.>.>.I.                                                ",
"                                  BXmXcXkXhXaX{.|.aX|.[.j.j.j.k.$.o.,.,.U Q d.                                                  ",
"                                  VXBXmXcXhXhX<X{.{.{.J.h.h.r.2.o.U 3.U W d.Y.                                                  ",
"                VXVXVXVXVX      VXVXBXBXmXnXhXhX6XP.H.d.2.>.>.>.Q Q I W D.P.dX                                                  ",
"              VXVXVXVXVXVXVXVXVXVXVXVXVXBXmXMXcXlX6X<XI.D.1.1.! >.! f.F.Y.dXlXZX                                                ",
"            VXVXVXVXVXVXVXVXVXVXVXVXVXVXVXBXNXmXMXbXlXdX<XY.Y.K.K.K.U.6XhXvXnXCXVXCXVXVXVXVXVX                                  ",
"          VXVXVXVXVXVXVXVXVXVXVXVXVXVXVXVXVXVXBXBXmXmXbXlXfXdXgXgXdXfXlXbXnXCXVXVXVXVXVXVXVXVXVX                                ",
"          VXVXVXVXVXVXVXVXVXVXVXVXVXVXVXVXVXVXVXVXVXCXNXNXnXbXbXbXbXnXmXCXCXBXVXVXVXVXVXVXVXVXVXVX                              ",
"        VXVXVXVXVXVXVXVXVXVXVXVXVXVXVXVXVXVXVXVXVXVXVXBXBXCXBXCXCXCXCXVXVXVXVXVXVXVXVXVXVXVXVXVXVXVXVXVX                        ",
"      VXVXVXVXVXVXVXVXVXVXVXVXVXVXVXVXVXVXVXVXVXVXVXVXVXVXVXVXVXVXVXBXVXVXVXVXVXVXVXVXVXVXVXVXVXVXVXVXVXVXVXVXVXVXVXVX          "
};
