/* XPM */
static char *e4a92263375c469ae411f772f1aa1a0aFpw153BxVGDeNPWI[] = {
/* columns rows colors chars-per-pixel */
"64 64 243 2 ",
"   c #080607",
".  c #0A0907",
"X  c #090708",
"o  c #0C0B0B",
"O  c #060406",
"+  c #110E0C",
"@  c #150907",
"#  c #14110E",
"$  c #1A160F",
"%  c #110F10",
"&  c #151313",
"*  c #1B1513",
"=  c #1B1816",
"-  c #191718",
";  c #1C1A1A",
":  c #231A15",
">  c #231D1B",
",  c #291D1C",
"<  c #231614",
"1  c #321E1B",
"2  c #2B221E",
"3  c #25211E",
"4  c #37241B",
"5  c #211F20",
"6  c #252322",
"7  c #2C2422",
"8  c #2C2B2A",
"9  c #2A2827",
"0  c #322623",
"q  c #352A24",
"w  c #392B28",
"e  c #323132",
"r  c #3B3836",
"t  c #3D312B",
"y  c #472C26",
"u  c #4B352B",
"i  c #57352B",
"p  c #483B36",
"a  c #5C3B32",
"s  c #543C33",
"d  c #66372D",
"f  c #693934",
"g  c #773936",
"h  c #43413F",
"j  c #4D4437",
"k  c #59433A",
"l  c #63443C",
"z  c #6A4A3E",
"x  c #684539",
"c  c #76473D",
"v  c #65503F",
"b  c #413F40",
"n  c #4B4B4B",
"m  c #464343",
"M  c #564D47",
"N  c #4F504E",
"B  c #58524B",
"V  c #545454",
"C  c #5A5957",
"Z  c #694C44",
"A  c #764C42",
"S  c #64564B",
"D  c #735146",
"F  c #7C5245",
"G  c #7A574A",
"H  c #665C55",
"J  c #7E5E52",
"K  c #67625D",
"L  c #79655A",
"P  c #6A6765",
"I  c #746A64",
"U  c #766C67",
"Y  c #79736D",
"T  c #7A7776",
"R  c #873F3D",
"E  c #8C473C",
"W  c #844D42",
"Q  c #845345",
"!  c #8B5D4C",
"~  c #86564A",
"^  c #95584A",
"/  c #895D51",
"(  c #995C53",
")  c #984545",
"_  c #AD5952",
"`  c #8C6254",
"'  c #89675A",
"]  c #936254",
"[  c #9B6555",
"{  c #9D6D5C",
"}  c #986959",
"|  c #97725D",
" . c #A3655A",
".. c #A36B5B",
"X. c #AB6B5D",
"o. c #A86556",
"O. c #A6725E",
"+. c #B3685C",
"@. c #946D61",
"#. c #897369",
"$. c #937364",
"%. c #997568",
"&. c #957D73",
"*. c #86756E",
"=. c #AB6C61",
"-. c #A47264",
";. c #AB7363",
":. c #A97B69",
">. c #B37464",
",. c #B47B6B",
"<. c #BB7B6B",
"1. c #B57767",
"2. c #A87D73",
"3. c #B87E73",
"4. c #BC6E64",
"5. c #C7786A",
"6. c #D87B6E",
"7. c #D1716B",
"8. c #E97C76",
"9. c #C55758",
"0. c #99857A",
"q. c #888079",
"w. c #B7816D",
"e. c #A88577",
"r. c #B88775",
"t. c #A9806D",
"y. c #C6826D",
"u. c #C28472",
"i. c #CA8575",
"p. c #CC8A76",
"a. c #CC8B79",
"s. c #C2897A",
"d. c #D38D7C",
"f. c #D88777",
"g. c #CD957D",
"h. c #D1917E",
"j. c #DA947D",
"k. c #D99378",
"l. c #EA8B77",
"z. c #E3977E",
"x. c #F1827D",
"c. c #898685",
"v. c #948B88",
"b. c #9B9896",
"n. c #9B928D",
"m. c #B68D84",
"M. c #A99387",
"N. c #A29E9D",
"B. c #A99A95",
"V. c #B79389",
"C. c #B7A49A",
"Z. c #A29FA0",
"A. c #A4A3A4",
"S. c #AAA7A6",
"D. c #B5AAA5",
"F. c #B9B7B7",
"G. c #B8B0A9",
"H. c #C89683",
"J. c #DC9483",
"K. c #DC9A84",
"L. c #D79A88",
"P. c #C8938C",
"I. c #E19684",
"U. c #E49B84",
"Y. c #EB9C85",
"T. c #E49C89",
"R. c #EA9D8A",
"E. c #E79586",
"W. c #F19C89",
"Q. c #EB9D92",
"!. c #DAA289",
"~. c #CBA899",
"^. c #DAA791",
"/. c #DEB49C",
"(. c #ECA38B",
"). c #E6A689",
"_. c #F3A48C",
"`. c #F3AA8E",
"'. c #F9A88C",
"]. c #E8A995",
"[. c #F4AB93",
"{. c #FBAD92",
"}. c #F7AA99",
"|. c #EBB496",
" X c #F4B194",
".X c #FCB495",
"XX c #F5B39C",
"oX c #FCB59A",
"OX c #F5BC9C",
"+X c #FCBB9B",
"@X c #FBBA95",
"#X c #FBB18F",
"$X c #C6BAB6",
"%X c #D0B3A7",
"&X c #EABBA6",
"*X c #FDBCA2",
"=X c #FBB3A2",
"-X c #F5B6AC",
";X c #FAC29E",
":X c #D9C4BB",
">X c #C3C0BF",
",X c #F3C1A3",
"<X c #FDC3A4",
"1X c #FDC9A6",
"2X c #FEC5AA",
"3X c #FDCBAC",
"4X c #F5C8AC",
"5X c #FED1AE",
"6X c #FDCDB2",
"7X c #F5C9B8",
"8X c #FDD3B3",
"9X c #FDD4BA",
"0X c #FDDABC",
"qX c #F4D3BB",
"wX c #E8C3AC",
"eX c #FCE1BB",
"rX c #C5C3C3",
"tX c #CCC8C7",
"yX c #D5C9C5",
"uX c #DBD2CE",
"iX c #DBD9D9",
"pX c #D0CFD1",
"aX c #ECD5C8",
"sX c #FDDCC3",
"dX c #FADACB",
"fX c #E5DBD7",
"gX c #F9DDD1",
"hX c #FCE4C7",
"jX c #F9E5DA",
"kX c #E9E0DC",
"lX c #EBE8E7",
"zX c #FCEDE3",
"xX c #F2EDEB",
"cX c #F1E8E5",
"vX c #FDF3ED",
"bX c #F5F0EF",
"nX c #F5F4F4",
"mX c #FAF5F4",
"MX c #FEF9F6",
"NX c white",
"BX c #FEFEFE",
"VX c gray99",
"CX c #FFFFFF",
/* pixels */
"NXNXNXNXNXNXNXNXNXNXNXNXNXNXNXNXNXNXNXNXNXNXNXNXNXNXNXNXBXBXlXpXrXrX>XrXiXnXNXBXnXVXNXNXNXNXNXNXNXNXNXNXNXNXNXNXNXNXNXNXNXNXNXNX",
"NXNXNXNXNXNXNXNXNXNXNXNXNXNXNXNXNXNXNXNXNXNXNXNXNXNXNXnXtXb.T P Y P P P T T v.v.c.Z.rXnXVXNXNXBXNXNXNXNXNXNXNXNXNXNXNXNXNXNXNXNX",
"NXNXNXNXNXNXNXNXNXNXNXNXNXNXNXNXNXNXNXNXNXNXNXNXNXiXA.T K V n b b n n N n n n n V V V T T b.b.F.tXBXNXNXNXNXNXNXNXNXNXNXNXNXNXNX",
"NXNXNXNXNXNXNXNXNXNXNXNXNXNXNXNXNXNXNXNXNXNXNXxXA.P N n b b r 9 6 e 8 9 8 9 9 8 e e b b m n N C T >XnXNXNXNXNXNXNXNXNXNXNXNXNXNX",
"NXNXNXNXNXNXNXNXNXNXNXNXNXNXNXNXNXNXNXNXNXNXtXT B m r 9 , 9 9 3 ; & - - 5 - - - - 5 6 8 e 8 e r V Y b.iXnXVXNXNXNXNXNXNXNXNXNXNX",
"NXNXNXNXNXNXNXNXNXNXNXNXNXNXNXNXNXNXNXNXBXS.H h r r 8 , ; 9 5 % X % - - - % - % & & ; ; - - ; 9 b K c.A.iXBXNXBXNXNXNXNXNXNXNXNX",
"NXNXNXNXNXNXNXNXNXNXNXNXNXNXNXNXNXNXNXVXZ.V h 8 3 ; = 8 8 , X . o 5 - - % & % X & X % o % o % - 6 r K b.pXnXBXBXNXNXNXNXNXNXNXNX",
"NXNXNXNXNXNXNXNXNXNXNXNXNXNXNXNXNXNXVXS.V h 8 6 > = 3 ; 6 & % & 5 - - 5 X & % X % o X o o X % % - 8 n c.F.iXBXBXNXNXNXNXNXNXNXNX",
"NXNXNXNXNXNXNXNXNXNXNXNXNXNXNXNXNXNXF.V b 8 6 = = = = 3 0 2 # + & % - - . + o o o o O o o + X % - 8 N c.F.kXNXNXNXNXNXNXNXNXNXNX",
"NXNXNXNXNXNXNXNXNXNXNXNXNXNXNXNXNXiXP p 8 ; & + # $ : 0 7 : + @ 5 6 - o . + o o o o O o % X X % - 8 N c.>XmXNXNXNXNXNXNXNXNXNXNX",
"NXNXNXNXNXNXNXNXNXNXNXNXNXNXNXNXVXb.n w ; # # $ : q q 1 , : * 6 0 , # # & & + o o o X % & X X o - e N c.>XVXNXNXNXNXNXNXNXNXNXNX",
"NXNXNXNXNXNXNXNXNXNXNXNXNXNXNXNXpXP m 2 = # # ; w Z G Z i l y 4 3 > : > , * * & o o X % o   X o - e V b.lXVXNXNXNXNXNXNXNXNXNXNX",
"NXNXNXNXNXNXNXNXNXNXNXNXNXNXNXNXZ.C r 3 * * : 2 u :.,.,.,.g.s.` a y w 1 q y w , = % o o o O X o - e V A.NXNXNXNXNXNXNXNXNXNXNXNX",
"NXNXNXNXNXNXNXNXNXNXNXNXNXNXNXlXq.V r 9 : 0 2 : c L.U.h.p._.oX(.J.,.[ ~ ~ G A s q * o + .   o o - e V A.NXNXNXNXNXNXNXNXNXNXNXNX",
"NXNXNXNXNXNXNXNXNXNXNXNXNXNXNXiXT V e 0 : q 2 4 -.[.#X_._.{.{.'._._.(.).J.i.1./ k , ; * + . o o - e V A.NXNXNXNXNXNXNXNXNXNXNXNX",
"NXNXNXNXNXNXNXNXNXNXNXNXNXBXBX$XY B r 0 q t u $.].oX@X@XoXoX{.'.W._._._.(.T.J.3./ Z p 0 : + o + & e N Z.NXNXNXNXNXNXNXNXNXNXNXNX",
"NXNXNXNXNXNXNXNXNXNXNXNXNXNXNXS.P B p r h j | !.|.oX+X+X+X.X{.'.'.W._._.W.U.j.i.X./ D l y 7 < * & e n c.mXBXBXNXNXNXNXNXNXNXNXNX",
"NXNXNXNXNXNXNXNXNXNXNXNXNXNXnXn.P B j j j J g.^.OX*X<X+XoX.X{.{.'._._.W.Y.E.z.p.1.[ [ / F Z u t - 6 N T lXNXBXNXNXNXNXNXNXNXNXNX",
"NXNXNXNXNXNXNXNXNXNXNXNXNXNXmXb.K B k v v t.!./.*X*X<X*X+X.XoX{.'.'._.Y.E.E.I.p.<.X. .} } / z k 6 5 n A.nXNXNXNXNXNXNXNXNXNXNXNX",
"NXNXNXNXNXNXNXNXNXNXNXNXNXNXNXA.K B B S J r.!.,X3X6X3X<X<X+X.XoX'._.W.(.Y.z.k.d.y.1.>.=.] / G D b 8 n F.NXNXNXNXNXNXNXNXNXNXNXNX",
"NXNXNXNXNXNXNXNXNXNXNXNXNXNXNXZ.H M j S G r.).5X8X8X8X3X2X<X@X X[._.(.R.T.I.j.d.d.5.<.>.;.[ ! ` B e n Z.NXNXNXNXNXNXNXNXNXNXNXNX",
"NXNXNXNXNXNXNXNXNXNXNXNXNXNXNXb.K B M D | j.|.5X6X9X9X6X1X*XoX}.[._.R.T.I.I.J.d.d.i.y.1.X...` [ / m V A.NXNXNXNXNXNXNXNXNXNXNXNX",
"NXNXNXNXNXNXNXNXNXNXNXNXNXNXNXn.I S v ' !.,X5X8X8X0X0X8X2X<XoXoX[._.(.T.T.J.j.d.a.a.u.w.>...[ } ' m V tXNXNXNXNXNXNXNXNXNXNXNXNX",
"NXNXNXNXNXNXNXNXNXNXNXNXNXNXnX*.I S l r.<X5X5X0X0X0X0X9X2X*X*X}.[.(.R.T.T.I.J.J.a.i.i.u.1.O.{ { @.N C iXNXNXNXNXNXNXNXNXNXNXNXNX",
"NXNXNXNXNXNXNXNXNXNXNXNXNXNXlXI L S J ;X1X1X5X8X8X8X3X2X2X*X=X=X[.Y.T.J.J.J.T.J.a.i.i.s.,.>.-.O.@.V P xXNXNXNXNXNXNXNXNXNXNXNXNX",
"NXNXNXNXNXNXNXNXNXNXNXvXcXnXiXB L B t.;X1X1X3X*X).H.a.H.!.|.oXXX}.(.T.J.J.T.Q.J.d.i.i.5.<.;.;.{ @.P T mXNXNXNXNXNXNXNXNXNXNXNXNX",
"NXNXNXNXNXNXNXNXNXNXvX7X9X&XM.M S v r.5X;X1X|.w.! F d u v ! r.g.L.L.J.J.J.I.Q.K.J.f.a.u.,.,.;.{ $.H Z.BXNXNXNXNXNXNXNXNXNXNXNXNX",
"NXNXNXNXNXNXNXNXNXNXaXQ.dX6XT.$.j v |.1X1X1Xz.g.^.L.2.s : = 2 4 a ( =.a.J.H.J.J.P.r.,.1.;.;.-.{ &.U pXNXNXNXNXNXNXNXNXNXNXNXNXNX",
"NXNXNXNXNXNXNXNXNXNXaXQ.dX9X1Xg.j | ;X;X1X1X;X5X5X2XOXL.] s $ @ 4 x O.h.5.5.1.J z a x F / ( @.@.&.c.bXVXNXNXNXNXNXNXNXNXNXNXNXNX",
"NXNXNXNXNXNXNXNXNXNX-X}.jXhXeX4XG r.;X;X;X1X1X`.r.w.| G Q F ~ ! ^ 1.I.U.<.>.( w * . + * ; q s ' &.B.NXNXNXNXNXNXNXNXNXNXNXNXNXNX",
"NXNXNXNXNXNXNXNXNXNX-X=XsXhX1X;Xt.g.5X1X1X<X`.^ d L t @ 4 i d o.k. X1X[.u.{ f q < * * < , , > M &.$XNXNXNXNXNXNXNXNXNXNXNXNXNXNX",
"NXNXNXNXNXNXNXNXNXNXdX}.6XoXl.@Xk.).1X1X5X1X#Xz.^.^.G s @.$.i E y.<X5X Xy.F f a a M ~ @.@.' Z b P lXNXNXNXNXNXNXNXNXNXNXNXNXNXNX",
"NXNXNXNXNXNXNXNXVXVXgX}.=X@X`.8X). X1X1X5X1X+X@X<X Xk.O.[ E c 1.z.;X;XW.4.x i u u p s Z F / ' L P bXVXVXNXNXNXNXNXNXNXNXNXNXNXNX",
"NXNXNXNXNXNXNXNXVXVXjX}._.;XeXeX|.@X<X1X5X1X+X@X@X).j.w...o.+.f.#X+X.Xz.X.x y i S = % w w a L ' I %XmXNXNXNXNXNXNXNXNXNXNXNXNXNX",
"NXNXNXNXNXNXNXNXNXNXmX-X}.XX<XhX<X+X<X3X8X5X2X+X.X).z.k.k.z.Y._.@X.X#XY.X.c i k D s s S , 1 G L #.~.lXNXNXNXNXNXNXNXNXNXNXNXNXNX",
"NXNXNXNXNXNXNXNXNXNXNXgX-X9X[.0X1X;X3X8X0X0X3X*X@X`.z.k.z.#X#X@X+X+X{.l.1.E d x Z ~ Q D l i D J 2.V.cXNXNXNXNXNXNXNXNXNXNXNXNXNX",
"NXNXNXNXNXNXNXNXNXNXNXvXdX7XhXhX1X,X3X0XsX9X3X<X.X}.(.z.l.'..X*X=X2X+Xl.4.Q c Q F ~ ~ Q F / / ' 3.C.xXVXVXNXNXNXNXNXNXNXNXNXNXNX",
"NXNXNXNXNXNXNXNXNXNXNXVXzXsXsXhX2X2X8X0XsX0X9X2X*XoX[.(._.oX+X*X+X6X2XW.+.Q E ! ~ ( o.[ ] ( ' -.m.~.mXVXNXNXNXNXNXNXNXNXNXNXNXNX",
"NXNXNXNXNXNXNXNXNXNXNXNXVXzXhX0X3X2X8X0X0XsXsX8X<XOX}.`..X*X1X2X2X*X*XW.X.F Q ^ (  .X...{ ( / m.P.yXmXVXNXNXNXNXNXNXNXNXNXNXNXNX",
"NXNXNXNXNXNXNXNXNXNXNXNXNXNXVXgX8X3X5X8X9XsXhX9X2XoX].T.Y.}.oXoX=XoXoXY.X.E ^ ^  .>.,.;.-.} @.P.~.xXMXVXNXNXNXNXNXNXNXNXNXNXNXNX",
"NXNXNXNXNXNXNXNXNXNXNXNXNXNXNXvX9X8X8X5X8X0X0X3XXX(.j.4.6.'.}.{.oXoX}.z.+.W ~ ( =.1.5.3.=.%.2.P.$XNXNXNXNXNXNXNXNXNXNXNXNXNXNXNX",
"NXNXNXNXNXNXNXNXNXNXNXNXNXNXNXMXsX9X8X5X5X8X2X<X].f.+._ f.oX*X*X*X2X(.z.4.W c ( =.1.3.3.:.2.2.~.mXNXNXNXNXNXNXNXNXNXNXNXNXNXNXNX",
"NXNXNXNXNXNXNXNXNXNXNXNXNXNXNXVXgX9X8X8X5X2X<X|.d.o._ H.}.}.f.6.{.=XR.J. .F f R ( 1.5.3.3.e.m.yXNXNXNXNXNXNXNXNXNXNXNXNXNXNXNXNX",
"NXNXNXNXNXNXNXNXNXNXNXNXNXNXNXVXgX0X8X5X5X1XOXp.[  .P.XXXX}.Q.Q.R.E.<.[ i g f d ^ =.3.m.2.m.%XmXNXNXNXNXNXNXNXNXNXNXNXNXNXNXNXNX",
"NXNXNXNXNXNXNXNXNXNXNXNXNXNXNXVXjX0X8X5X3X1X!.>.r.g.!.!.T.J.J.i.( c l u i c Z i W =.1.2.m.C.cXNXNXNXNXNXNXNXNXNXNXNXNXNXNXNXNXNX",
"NXNXNXNXNXNXNXNXNXNXNXNXNXNXNXNXgX0X5X1X1X<Xg.w.w.u.L.h.L.J.H.>.z D D a a l D x ~ =.,.m.M.kXNXNXNXNXNXNXNXNXNXNXNXNXNXNXNXNXNXNX",
"NXNXNXNXNXNXNXNXNXNXNXNXNXNXNXNXhXqX5X5X;X;Xk.O.( ( 6.E.J.J.f.1.D / ` Z f l Z D / 1.2.2.D.MXVXNXNXNXNXNXNXNXNXNXNXNXNXNXNXNXNXNX",
"NXNXNXNXNXNXNXNXNXNXNXNXNXNXNXVXjXsX5X5X;X;Xz.p.K.].8.8.6.6.6.7. .=.( G D M i Z / 2.2.M.yXVXVXVXNXNXNXNXNXNXNXNXNXNXNXNXNXNXNXNX",
"NXNXNXNXNXNXNXNXNXNXNXNXNXNXNXNXjXsX7XOXOXOX).`.@X1X<XW.8.7._ ) ) R g d a y k G %.e.e.M.cXNXNXNXNXNXNXNXNXNXNXNXNXNXNXNXNXNXNXNX",
"NXNXNXNXNXNXNXNXNXNXNXNXNXNXNXNXjXsX8X,XOXOX@X@X.XoX<XoX'.8.9.9._ ) g g g ! O.O.r.e.e.$XNXNXNXNXNXNXNXNXNXNXNXNXNXNXNXNXNXNXNXNX",
"NXNXNXNXNXNXNXNXNXNXNXNXNXNXNXNXzXhXqX4X;X;X;X;X.X.X+X(.U.f.6.7._ _ ( ^ ..r.w.w.e.e.C.xXNXNXNXNXNXNXNXNXNXNXNXNXNXNXNXNXNXNXNXNX",
"NXNXNXNXNXNXNXNXNXNXNXNXNXNXNXNXvXjXqX7X,X;X1X;XoX`.@X`.k...D z F W c ! 1.r.w.t.&.M.iXNXNXNXNXNXNXNXNXNXNXNXNXNXNXNXNXNXNXNXNXNX",
"NXNXNXNXNXNXNXNXNXNXNXNXNXNXNXVXvXzXhXqX4X,X,X;X;X@X X.X`.g.' Z ~ F / >.<.:.t.| 0.tXNXNXNXNXNXNXNXNXNXNXNXNXNXNXNXNXNXNXNXNXNXNX",
"NXNXNXNXNXNXNXNXNXNXNXNXNXNXNXNXMXvXhXqX4X,X^.,X,X*XOXOX}.].L.,.-.,.w.w.t.-.$.0.:XBXNXNXNXNXNXNXNXNXNXNXNXNXNXNXNXNXNXNXNXNXNXNX",
"NXNXNXNXNXNXNXNXNXNXNXNXNXNXNXVXMXMXzXgXqXwX/./.wX&XOX].L.L.!.r.:.:.2.:.%.#.*.C.NXNXNXNXNXNXNXNXNXNXNXNXNXNXNXNXNXNXNXNXNXNXNXNX",
"NXNXNXNXNXNXNXNXNXNXNXNXNXNXNXNXMXMXmXjXhXqXwX~./.wX/.P.r.r.r.t.$.' | $.L I 0.iXNXNXNXNXNXNXNXNXNXNXNXNXNXNXNXNXNXNXNXNXNXNXNXNX",
"NXNXNXNXNXNXNXNXNXNXNXNXNXNXNXNXVXVXMXvXjXdXaX:X%X~.~.V.e.e.t.%.' ' #.L L q.D.xXNXNXNXNXNXNXNXNXNXNXNXNXNXNXNXNXNXNXNXNXNXNXNXNX",
"NXNXNXNXNXNXNXNXNXNXNXNXNXNXNXNXNXVXMXMXmXjXaXaX:XC.M.0.q.#.*.*.I U L I v.D.:XbXNXNXNXNXNXNXNXNXNXNXNXNXNXNXNXNXNXNXNXNXNXNXNXNX",
"NXNXNXNXNXNXNXNXNXNXNXNXNXNXNXNXNXNXVXVXMXvXzXjXaX:X%XC.v.q.*.*.Y Y q.n.G.yXfXnXNXNXNXNXNXNXNXNXNXNXNXNXNXNXNXNXNXNXNXNXNXNXNXNX",
"NXNXNXNXNXNXNXNXNXNXNXNXNXNXNXNXNXNXVXNXVXMXMXmXvXcXfX:X$XG.D.B.B.B.D.>XuXkXxXmXNXNXNXNXNXNXNXNXNXNXNXNXNXNXNXNXNXNXNXNXNXNXNXNX",
"NXNXNXNXNXNXNXNXNXNXNXNXNXNXNXNXNXNXNXNXNXVXVXVXmXMXbXlXfXuXtXtX>XyXuXfXcXbXmXNXVXNXNXNXNXNXNXNXNXNXNXNXNXNXNXNXNXNXNXNXNXNXNXNX",
"NXNXNXNXNXNXNXNXNXNXNXNXNXNXNXNXNXNXNXNXNXNXVXVXMXMXMXmXxXxXxXlXcXxXbXbXmXmXVXNXNXNXNXNXNXNXNXNXNXNXNXNXNXNXNXNXNXNXNXNXNXNXNXNX",
"NXNXNXNXNXNXNXNXNXNXNXNXNXNXNXNXNXNXNXNXNXNXNXNXNXVXVXVXVXVXMXmXMXMXMXVXVXVXNXNXNXNXNXNXNXNXNXNXNXNXNXNXNXNXNXNXNXNXNXNXNXNXNXNX",
"NXNXNXNXNXNXNXNXNXNXNXNXNXNXNXNXNXNXNXNXNXNXNXNXNXNXNXVXNXNXNXVXNXNXVXNXNXNXNXNXNXNXNXNXNXNXNXNXNXNXNXNXNXNXNXNXNXNXNXNXNXNXNXNX"
};
