/* XPM */
static char *_509e3ce025b4b6a9baf2c1c1685ef8ehTmNxy6UfJNBoL2W[] = {
/* columns rows colors chars-per-pixel */
"64 64 238 2 ",
"   c None",
".  c #000001",
"X  c #05050B",
"o  c #0C0B0D",
"O  c #08060A",
"+  c #0D0D13",
"@  c #0E0E19",
"#  c #070713",
"$  c #100F1C",
"%  c #100F11",
"&  c #0E1117",
"*  c #111113",
"=  c #12121D",
"-  c #1E1E1F",
";  c #0C1926",
":  c #141522",
">  c #191724",
",  c #1A1926",
"<  c #1D1B2A",
"1  c #151A27",
"2  c #1A1E33",
"3  c #231D2E",
"4  c #271F31",
"5  c #0C273A",
"6  c #182439",
"7  c #2C2236",
"8  c #292337",
"9  c #33263B",
"0  c #35293E",
"q  c #333238",
"w  c #27262D",
"e  c #0B2E44",
"r  c #192E48",
"t  c #0A334C",
"y  c #0A3047",
"u  c #13314C",
"i  c #0D3752",
"p  c #173457",
"a  c #1C2F50",
"s  c #2B2844",
"d  c #3B2D43",
"f  c #342B46",
"g  c #3A3547",
"h  c #3B2D56",
"j  c #26335C",
"k  c #373654",
"l  c #283464",
"z  c #343467",
"x  c #3C3573",
"c  c #42354A",
"v  c #453A53",
"b  c #4B3B55",
"n  c #483A58",
"m  c #543F5D",
"M  c #473A65",
"N  c #453779",
"B  c #553E66",
"V  c #45454A",
"C  c #4A494E",
"Z  c #424346",
"A  c #4E4C53",
"S  c #4C4758",
"D  c #54425D",
"F  c #524C59",
"G  c #564C58",
"H  c #54525A",
"J  c #5A595C",
"K  c #57525B",
"L  c #5A4663",
"P  c #574666",
"I  c #5C5864",
"U  c #5A4673",
"Y  c #544F6D",
"T  c #654969",
"R  c #65576A",
"E  c #684D79",
"W  c #764A74",
"Q  c #6A5875",
"!  c #755979",
"~  c #69656E",
"^  c #6B6375",
"/  c #746373",
"(  c #726D75",
")  c #7A657D",
"_  c #7B6C7D",
"`  c #766878",
"'  c #727375",
"]  c #79737C",
"[  c #6F7073",
"{  c #5E616F",
"}  c #834D7D",
"|  c #816D7F",
" . c #4D3981",
".. c #563D85",
"X. c #5A4688",
"o. c #5D5B82",
"O. c #654986",
"+. c #695587",
"@. c #7D5C83",
"#. c #765686",
"$. c #675595",
"%. c #775996",
"&. c #6C4C8F",
"*. c #7C6787",
"=. c #7C7782",
"-. c #756798",
";. c #726B90",
":. c #7B6DA8",
">. c #984D8C",
",. c #895A87",
"<. c #865997",
"1. c #955998",
"2. c #904E8D",
"3. c #A15295",
"4. c #846385",
"5. c #8D6B8A",
"6. c #866887",
"7. c #926D8C",
"8. c #847484",
"9. c #837D86",
"0. c #8C738A",
"q. c #897A8A",
"w. c #94738D",
"e. c #927C8E",
"r. c #98768F",
"t. c #9C6795",
"y. c #897795",
"u. c #9B7692",
"i. c #9D7B92",
"p. c #967A93",
"a. c #836A94",
"s. c #A27D95",
"d. c #A8799B",
"f. c #A66B9D",
"g. c #925EA4",
"h. c #AC5BA6",
"j. c #B15DA6",
"k. c #8767A6",
"l. c #9865A5",
"z. c #8974A7",
"x. c #9676B5",
"c. c #9674AE",
"v. c #A865A9",
"b. c #BC65AD",
"n. c #B768AB",
"m. c #B978A8",
"M. c #AB69B4",
"N. c #B36AB6",
"B. c #A475BC",
"V. c #BA74BC",
"C. c #AD71A1",
"Z. c #C36CB2",
"A. c #C977BA",
"S. c #C16DAE",
"D. c #B879C4",
"F. c #AA78C3",
"G. c #CA7BC4",
"H. c #D37DC5",
"J. c #86848A",
"K. c #88888C",
"L. c #8E8D92",
"P. c #9C8294",
"I. c #938795",
"U. c #8F9093",
"Y. c #969499",
"T. c #919094",
"R. c #92808F",
"E. c #A38196",
"W. c #A58499",
"Q. c #AB839B",
"!. c #AB8B9E",
"~. c #A28999",
"^. c #B1859F",
"/. c #9999A4",
"(. c #9484A8",
"). c #AB89A2",
"_. c #B48AA2",
"`. c #B888A6",
"'. c #B994AA",
"]. c #AF8DAF",
"[. c #A4A6AA",
"{. c #A7A9AE",
"}. c #A6A7AB",
"|. c #ABADB2",
" X c #AEB1B6",
".X c #B1B4B9",
"XX c #B6B9BE",
"oX c #B9BABE",
"OX c #B1B3B7",
"+X c #B1AFB3",
"@X c #C293AE",
"#X c #C787B7",
"$X c #C899B3",
"%X c #D49CBC",
"&X c #C987B7",
"*X c #D1A2BB",
"=X c #B18DD1",
"-X c #BBBDC2",
";X c #B2A1DF",
":X c #BFA3E0",
">X c #DC85CB",
",X c #D888CA",
"<X c #DA98C8",
"1X c #C494D8",
"2X c #CC90D1",
"3X c #E699D6",
"4X c #E192CD",
"5X c #DBA6C4",
"6X c #E5A8CC",
"7X c #EBABD7",
"8X c #EDB2D5",
"9X c #F1B7DB",
"0X c #F2BCE1",
"qX c #EEB1E1",
"wX c #C4A5E4",
"eX c #BEC1C5",
"rX c #C0C3C7",
"tX c #C3C5C9",
"yX c #C6C9CD",
"uX c #C9CBCE",
"iX c #C8C7CA",
"pX c #CBCDD1",
"aX c #CED0D6",
"sX c #DADBDC",
"dX c #D4D5D8",
"fX c #D1CFD2",
"gX c #F3C3E4",
"hX c #F5CBE8",
"jX c #F4D3EA",
"kX c #F4DBED",
"lX c #F8DBEF",
"zX c #EFCFE6",
"xX c #E2E3E4",
"cX c #EBEBEC",
"vX c #E7E7E9",
"bX c #F4F4F5",
"nX c #F3E9F1",
"mX c #DFDFE1",
/* pixels */
"                                                                                                                                ",
"                                                                                                                                ",
"                                                                                                                                ",
"                                                                                                                                ",
"                                                                                                                                ",
"                                                                                                                                ",
"                                                        K.L.U.K.L.U.K.L.L.K.U.L.L.U.K.L.U.K.L.  K.                              ",
"          * . . . . . . . . . . . . . . . . . O . . . . . . . . . . . . . . . . . . . . . . . . . . # @ # @ # # # >             ",
"          . q C V C A C A H C C F H J J J J J J J J J R J I J I J K J J J J J J J J J J I J I J I ~ ~ { I I I R I @ H           ",
"          . q S F I I R R Q R ~ { Q ^ o.*.;.;.;.y.a.y.y.p.).).y.y.y.y.a.y.y.y.q.q.y.y.I.p.y.y.y.I.I.L.q.J.9.9.9.^ $ H           ",
"          . 1 q s f g c v b D m n n n M P U U E O.E E W @.6.,.#.E O.E E E E Q Q Q Q ^ *.@.@.! ! *.*._ ( ( ( ~ / D $ K           ",
"          . 2 s g k k v b b D L P P B B U U +.+.#.@.#.,.6.7.t.6.,.W #.#.@.! ! ) _ ) 8.0.5.6.4.0.q.q.8.| ] ' ( / K $ F           ",
"          . 3 g k k v n b b L L R L L L U E +.*.a.4.,.4.5.r.u.7.4.@.,.@.@.4.4._ _ 0.e.w.w.w.0.e.p.q.q.8.=.' ` / I $ H           ",
"          . 8 k g k v b b S m D L T R R Q Q *.6.6.5.5.5.w.i.d.r.5.4.6.4.6.6.0.8.0.i.u.u.r.w.i.P.p.q.J.| ] ' ( ( L $ H           ",
"        ' . 8 z v S n b D b D D G T R R / ) *.6.0.0.w.7.r.E.E.i.w.5.7.0.r.w.w.w.R.E.i.s.u.u.E.P.R.q.9.8.| ] ` ` I $ F           ",
"        ' . 9 D M S P P L L L D D D T R Q ) 6.5.w.w.u.u.s.Q.^.E.w.w.w.r.P.i.e.P.P.P.W.E.r.s.E.i.e.R.q.8.| _ ` ) K $ H           ",
"        ' . f P P U U T E E T P P L G T R / 8.w.r.r.r.r.E.Q._.Q.s.s.| E.E.P.P.~.~.Q.W.r.P.E.E.P.R.R.e.q.| / ! / G * F           ",
"        ' . f U U E E O.#.W ! E T T T T W ! 4.w.r.u.r.s.E._._.Q.s.^.^.Q.E.E.E.~.!.!.E.r.Q.Q.~.~.P.R.q.8.| / / / T = F           ",
"        ' . h X.E O.O.%.%.<.@.#.W W E Q W | 5.7.u.s.s.d.^.`.@X_.d.^.^.^.Q.^.'.'.'._.E.Q._.Q.!.~.P.e.8.| | / / / T $ G           ",
"        ' . h O.&.&.#.#.<.1.1.1.<.,.} } } } 7.u.s.^.d.`.`.@X@X`.^.^._._._.'.'.$X$X_.Q.'.'._.[.!.P.e.| | / / / 5./ % A           ",
"        ' . h $.$.%.%.<.<.g.M.h.v.l.1.2.5.,.t.d.^.`.@X@X@X%X%X$X@X@X@X$X$X*X*X*X$X_.$X@X'.'.'.!.~.R.| | | | w.d.5.@ A           ",
"        ' . M %.$.%.%.<.<.<.g.F.D.V.C.f.t.3.t.C.S.@X$X&X&X<X6X5X%X%X%X5X6X5X5X5X$X$X*X$X$X'.'.!.~.R.e.e.w.s.d.&Xf.+ A           ",
"        [ . M k.:.%.:.k.<.<.<.v.V.H.H.A.j.f.n.C.A.&X%X<X5X6X7X6X6X8X8X8X8X8X8X*X5X5X$X$X$X$X'.!.P.i.r.i.d.@XA.%Xm.# A           ",
"          . Y x.z.k.k.k.l.g.g.g.h.V.H.>XA.b.j.b.Z.&X6X7X6X7X9X9X8X9X9X9X8X8X8X6X8X5X*X5X*X@X_.W.s.u.d.S.&X,X<X4Xu.X A           ",
"          . +.=Xx.x.x.z.x.x.x.B.M.M.V.H.H.H.A.Z.Z.A.3XqX7X8X0X0XgXgXhXhXgX9X8X8X6X6X6X5X@Xm.d.d.C.m.&X>X3X>X,X'.8.O A           ",
"        ' . ;.wX;X=X=XF.F.F.B.B.M.N.N.b.A.H.H.H.A.A.H.qX9X0XgXhXhXhXjXjXhX9XgX8X8X9X6X&Xm.m.S.S.A.>X>X>XH.&X].'.=.X C           ",
"          . o.;X;X:X:X;X1XD.D.F.F.M.M.j.h.j.G.>XH.H.H.qX0XgXhXjXjXkXkXlXjXhXgXgX0X3XZ.b.S.S.S.A.H.A.A.&X#XB.c.z.E X C           ",
"        ( . z $.:.x.=X=X1X1XD.G.D.D.N.j.h.h.h.b.H.3X3X3X0XgXjXlXzXkXnXkXlXlXlXhX>XZ.b.b.S.S.Z.A.A.A.N.M.l.a.#.T k X C           ",
"        ' . s  . ...X.%.:.x.F.F.D.G.D.D.N.h.h.h.Z.A.<X<X7X0XgXlX9XzXhXlXnXlXgXA.j.j.j.j.b.j.Z.j.j.>.,.W L b c d 7 X C           ",
"        ' . 6 l x x  . . .....&.<.g.M.M.M.M.j.h.l.C.B.].D.3XqXhX9X9XhXlXhX4Xj.3.>.3.3.3.>.>.>.} W m v d d 0 d 9 8 . C           ",
"        ' . ; r p j l z x x  . . . .......&.&.&.l.z.(.z.#.l.,XqX7XqX9X2X3.} } } W W T T W m b b c c d 9 f 9 9 7 3 X V           ",
"        ' . = 6 e e e u p j l l x x x N N B M M N X.;.-.O.O.x.2X2XD.2.L c b b c b c b b c c d d 9 9 f 4 4 4 3 3 > . V           ",
"        ' . ; e e y t t t t i i p p j l l z z z z x +.:.(.-.-.x.<.M d 7 9 9 d d d d d d c d 9 9 4 7 4 4 3 < , : = . V           ",
"        ' . ; 5 5 e e e y t t i p p j j z z z l j z X.+.$.-.$.M s 8 4 4 7 7 4 8 9 7 7 4 f 4 3 4 4 3 3 , , , > - = . V           ",
"        ' . ; t t t t t t i i p l l j a 9 8 6 < > < 6 6 r 6 8 < 3 8 , , > 3 , 3 , , , > , , 3 4 8 3 > > , , 1 3 = . V           ",
"        ' . 5 i i i i i i i u r 5 6 : ; = = @ @ @ $ = < , : : @ * = $ = $ = $ : $ $ $ @ $ , = , 1 , 1 > 1 1 : : = . Z           ",
"        ' . 5 p u e 6 6 1 ; = @ * @ + @ & @ @ @ @ @ @ @ @ @ @ @ + @ = = $ @ @ = + + @ @ = : : : = : : : : : : = + . V           ",
"        ' . & ; * + = * X O X X # O . X X X X X X @ # # # # # # # @ = @ + + @ + @ X X # @ @ @ = = = @ = = < @ @ O . Z           ",
"        ' . . o . X X X . O X X X : { g q { C C I G G S I I { A g g w q R I K I w A H K q , = @ * = : @ @ @ O X X . Z           ",
"        [ . . o X . . . X . . X X Y =.~ ~ :.J.:./._ 0.I.J.J.(.9.9.' Q ^ ( =.J.L.] _ L.[.] R * o # O + X X X X X O . g           ",
"        9.. . . . . . . . . . . . o o o o o o o o o o o o o o o + o o o o o + o * o o o o * . . . . . . . . . . . . H           ",
"        XXZ * o % * % % % % % % % o o o o o o % o o o o o o o % % * * o * + + o * % % o o o * * * * * * * * % + * w [.          ",
"        -XXX|.{.{.{.{.}.{.{.{.|.{.{.{.{.|.|. X+X.X.X.XXX-X-X-XeXrXtXrXtXtXyXtXyXtXrXrXrXeXeXeXoXoXXXXX.X.X.X X|. X.XeXvX        ",
"        oX.X.X.X.XXX.XXX.X.XXX.XXX.XXXXXXX-X-X-XeXeXeXeXtXyXuXaXpXpXpXaXaXaXaXaXaXaXaXaXaXuXuXyXyXtXrXeXeX-X-X-XoX.X.XbX        ",
"        oX X.X X X.X.X X.X.X X.X X.X.X.X.X.XXXoX-X-XeXeXeXrXaX{./.fXpXuXpXuXpXuXuXuXuXuXyXtXtXtXeXeX-X-XoXXXXXXX.X.X.XvX        ",
"        -X X X.X.X X X.X X X.X.X.X.X X.X.XXXXXoXoX-X-XeXeXuX~ - C uXyXuXuXuXuXuXuXuXuXyXyXtXtXrXeXeX-X-XoXXXXX.X.X XXX          ",
"        -X X.X.X X.X.X X.X X.X X X.X X.X.X.X.XXXXX-XoXeXeXpXq . q yXyXyXyXyXyXyXyXyXtXtXtXrXrXeXeX-X-XoXoXXXXX.X.X.XXX          ",
"        XX X.X X.X X.X.X X.X X.X.X X.X.X.X.X.XXXXXoXoX-XeXtXL.q K eXtXtXtXtXyXtXtXtXtXtXrXeXeXeX-X-X-XXXoXXX.X.X.X X.X          ",
"           X X.X.X X.X X.X.X X.X.X.X X.X X.X.X.XXXXXoX-X-X-XrXtXuXeXeXeXuXeXeXeXtXrXtXrXeXeX-X-X-X-XXXXXXX.X.X.X.X|..X          ",
"                           X X X X X X X X X.X.X.XXXXX-X-XoXeXeXeXeXeXeXeXeXeXeXeXeX-X-X-X-X-X-XXXXXXX.X.X.X.X X X.X            ",
"                                      cXsXcXvXsXsXK.J.J.J.J.J.J.K.K.K.K.U.J.dXcXmXbXmXxXbXsXvXcXsX                              ",
"                                                sX( [ [ ' ' ' ' ' [ [ [ [ ~ *X                                                  ",
"                                                pX=.9.9.9.9.J.| 9.9.9.9.9.] +X                                                  ",
"                                                uXT.Y.Y.Y.Y.Y.Y.Y.Y.Y.Y.Y.L.oX                                                  ",
"                                                rX[.[.[.[.[.[.[.[.[.[.[.[.[.XXbX                                                ",
"                                              xX+X[.[.[.[.[.[.[.[.[.[.}.{.{.{.dXbX                                              ",
"                                            oXU./.[.{.OX.X.XoXXXXXXX.X X{.[./.Y.Y.bX                                            ",
"                                            fXfXuXdXxXdXcXcXxXbXvXxXcXmXsXsXiXiXtXxX                                            ",
"                                                            bX      cXbXbXcXbXbXbX                                              ",
"                                                                                                                                ",
"                                                                                                                                ",
"                                                                                                                                ",
"                                                                                                                                ",
"                                                                                                                                "
};
