/* XPM */
static char *b8003b02bd0741c5f005aa697a202256hEARhajAcxeHAUUU[] = {
/* columns rows colors chars-per-pixel */
"64 64 198 2 ",
"   c #0E2B07",
".  c #163708",
"X  c #17360D",
"o  c #163B0D",
"O  c #1A3C0E",
"+  c #1B3D11",
"@  c #203D0F",
"#  c #223F12",
"$  c #293A2F",
"%  c #16400C",
"&  c #1B430E",
"*  c #1D4C0E",
"=  c #1F510E",
"-  c #1D4412",
";  c #1E4B12",
":  c #1F4B18",
">  c #1F5012",
",  c #21450F",
"<  c #214E0E",
"1  c #20500F",
"2  c #214513",
"3  c #234C14",
"4  c #294D16",
"5  c #244519",
"6  c #29471A",
"7  c #254C19",
"8  c #2A4E1A",
"9  c #245315",
"0  c #295416",
"q  c #255A15",
"w  c #295B16",
"e  c #265419",
"r  c #2A551A",
"t  c #265A19",
"y  c #2C5B1B",
"u  c #31571E",
"i  c #315D1D",
"p  c #276017",
"a  c #2B6016",
"s  c #276318",
"d  c #2D631C",
"f  c #2E691C",
"g  c #32631E",
"h  c #336A1E",
"j  c #2C4D23",
"k  c #2D4825",
"l  c #314E27",
"z  c #2E5323",
"x  c #2E5C21",
"c  c #325425",
"v  c #335C23",
"b  c #36542B",
"n  c #385629",
"m  c #355E2A",
"M  c #3A5B2D",
"N  c #3A4B35",
"B  c #3E5B33",
"V  c #3F5B38",
"C  c #2E6120",
"Z  c #346422",
"A  c #3A6522",
"S  c #356B22",
"D  c #3A6B24",
"F  c #346229",
"G  c #3A642A",
"H  c #356829",
"J  c #3C6C2D",
"K  c #377225",
"L  c #3A7325",
"P  c #3D7A27",
"I  c #3E722B",
"U  c #3E6331",
"Y  c #3F6931",
"T  c #415B37",
"R  c #406B2C",
"E  c #437426",
"W  c #42722D",
"Q  c #416334",
"!  c #416C32",
"~  c #49653A",
"^  c #476A3D",
"/  c #4D6B3D",
"(  c #427135",
")  c #487B35",
"_  c #465545",
"`  c #4B5446",
"'  c #4A5847",
"]  c #4C5B4B",
"[  c #4C6344",
"{  c #4D6C43",
"}  c #526C44",
"|  c #546B4B",
" . c #58734D",
".. c #587949",
"X. c #576451",
"o. c #5B6554",
"O. c #5B6A54",
"+. c #5F7253",
"@. c #656757",
"#. c #646D5C",
"$. c #62745A",
"%. c #667958",
"&. c #657A5A",
"*. c #696B6C",
"=. c #6A7564",
"-. c #6D7B65",
";. c #717F67",
":. c #717A6A",
">. c #757A78",
",. c #468032",
"<. c #6A8061",
"1. c #748567",
"2. c #75826C",
"3. c #7B8672",
"4. c #7B827E",
"5. c #818D76",
"6. c #86847D",
"7. c #828878",
"8. c #859274",
"9. c #89947E",
"0. c #8F9A7F",
"q. c #7D8683",
"w. c #868985",
"e. c #8B8E89",
"r. c #928F89",
"t. c #8D9582",
"y. c #939C86",
"u. c #989789",
"i. c #9B9B8C",
"p. c #8C9C95",
"a. c #969691",
"s. c #9D9E9B",
"d. c #A88F83",
"f. c #A39986",
"g. c #A39C8B",
"h. c #A19D95",
"j. c #96A08D",
"k. c #9BA18D",
"l. c #9DA592",
"z. c #A7A389",
"x. c #A4AB95",
"c. c #A6A39D",
"v. c #ABA69E",
"b. c #ABAB9C",
"n. c #B2A896",
"m. c #B4AC9C",
"M. c #AFB29D",
"N. c #B8B09F",
"B. c #A6A4A1",
"V. c #A9A6A3",
"C. c #AFABA8",
"Z. c #B2ACA1",
"A. c #B2AEAB",
"S. c #ADB1A1",
"D. c #B3B3A3",
"F. c #BDB6A4",
"G. c #BEB8A6",
"H. c #B6B2AE",
"J. c #BCB6AB",
"K. c #B6B8A8",
"L. c #BDBAAB",
"P. c #B6B3B1",
"I. c #BBB6B1",
"U. c #BDBAB3",
"Y. c #C2BBAD",
"T. c #C5BEB1",
"R. c #C0BBB8",
"E. c #BFC1AE",
"W. c #C5C2B3",
"Q. c #CAC4B5",
"!. c #CBC9B5",
"~. c #C4C2BE",
"^. c #CBC5BA",
"/. c #C5C9BD",
"(. c #CDC9BC",
"). c #D0C7BD",
"_. c #D2CBBE",
"`. c #CED0BA",
"'. c #D6D1BE",
"]. c #C6C5C1",
"[. c #CBC6C2",
"{. c #CDCAC4",
"}. c #CECDCA",
"|. c #D3CDC3",
" X c #D8CFC0",
".X c #D2CEC9",
"XX c #CED0C5",
"oX c #D6D1C4",
"OX c #D9D3C6",
"+X c #D5D2CB",
"@X c #DAD6CB",
"#X c #DDD9CD",
"$X c #DEDAD0",
"%X c #E1DCCF",
"&X c #E2DED2",
"*X c #E4E1D4",
"=X c #E9E3D9",
"-X c #EFEBDC",
/* pixels */
"( G c v c # n G ) u M ! 6 v n F / T.).)._._. X X X X X X|. X X_.).^.T.T.T.T.T.T.Y.Y.Y.Y.Y.J.J.T.%.v v H m v c ) m F ! ( v 8 m G ",
"Z r w 3 # g A 0 i 4 u u & i v y / '.n.N.N.N.Z.Z.Z.Z.Z.Z.Z.Z.Z.v.m.v.Z.V.Z.C.v.v.v.B.V.V.V.h.c.T.%.7 - 3 o 2 e Z Z d x 3 3 ; s 7 ",
"u 0 q m i L R i D 0 w 2 O w h 9 / _.g.g.h.c.B.c.B.B.V.V.V.V.V.C.C.C.C.A.C.A.H.H.A.H.H.I.H.H.A.^...y ; ; 9 0 0 w v ; 9 9 0 g D d ",
"6 , 0 i 0 w O Z i u < O 0 4 0 w ~ '.m.Y.T.|.|.).|.|.|.|.OX|.|.|. X X|. X X|. X X X X X_.). X_.T.} t e t r e d h Z e D e 4 h 3 0 ",
"v 4 i y 0 0 , ; > w & ; 0 u g 9 R _.n.Y._. X X%XOX%X@XOXOXOXOXOXOXOXOX|. X|. X X).|.).).^._._.(./ y d e y e 7 r J e d 9 3 y   q ",
"R A i e 3 2 i i s 3 ; e i 4 r 3 T  Xn.Y._.%X X'.%X XOXOXOXOXOXOXoX|. X X|.|. X[.|._.).).)._._._.~ 3 ; y d y e 7 I R e & w Z 3 d ",
"n w d D 0 & w y q - d g 7 7 y y l  Xn.Y._. X'.%X X%X X XOXOXOXOXoXOX|.|. X|. X[. X_._.).).|._. XB e 0 g 7 - - e d D 0 r d g d 7 ",
"v 9 ; i & < d - 3 e S y 9 d w y k  Xm.Y.).%X%XOXOXOXOX%X@XOXOX@XOX|.OXOX|. X X X|._._._.).|._.|.N 9 w 0 3 w x 9 0 q & g S v 0 - ",
"Z r 2 s = q D y & e d S t d y & c oXN.Y._.OXOX%XOX%X%XOX#XOX@XOXOXOXOXOXoXoX X|.|.'._.|._.|.|.'.M 9 0 3 e d m 8 e w 9 Z K - A Z ",
"z 7 ; ; - e d W x i e t > c K : y '.N.Y._.OXOX%X%XOXOX%XOXOX@X@X@XOXOXOXOXOXoXoXoX_.oX_._.oX'.oXb h r o e 3 2 : w 0 7 : S r g y ",
"z - o - r Z 0 g D 7 7 & y ( x y z (.F.L._.OX%X%X%X'.%XOX%X#X@X@X@X@XOX@XOXOXOXOXoXoX|._._.oX_.oXM A P 7 9 e 8 - f h o ; 9 t q e ",
"m 9 ; 9 7 g 3 w r > > r g W r S 5 Q.Y.G._.OXOX%X%X%XOX%X%XOX#X@X@X@X@XOX@XOXOXOXoXoXoXoX|.oXoXoXM 7 t S w s q & d 1 % - r q w v ",
"H ; y 7 @ i * w 2 9 t : g g y e 5 T.G.G._.OX@X%X%X%XOX%X#X#X#X@X@X%X@X@XOX@XOXOXOXoXoXoX|.OX XoXb + q d & q g q q q 9 < r r 9 3 ",
"F 9 y e y d 9 * * h y 9 x t e e 7 F.Y.Y._.OX%X@XOX%X%X%X$X#X#X#X%X@X@X@X%X@X@XOXOXOXoXoX|.OXoXoXj - s e - w 0 S & * * 9 y g ; 3 ",
"I t r h g u 0 q 9 9 t t 3 e h d 6 F.T.Y._.#X#X%X%X%XOX%X*X&X&X&X%X%X%X#X%X@XOX@X@XOXoX+XoXOXOXoXc 5 9 p d r < 9 0 q q 9 Z f 9 3 ",
"J i 7 - h u 4 i r 3 d ; 7 y t q w M.Q.Y._.OX#X%X#XOX%X%XE.E.E.E.Y.U.U.T.^.OX@XOX@XOXOXOXoX@XOX(.v r g 3 - * g 7 g O t K 3 9 ; 3 ",
"v 6 y 9 d 6 s S e y Z y ; - i q e x.Q.Y._.OX%X%X#X#X#X*Xq.3.q.p.q.e.a.e.a.@X@X@X@XOXOXOXOXOXOX/.v y u 2 < X 7 3 h i , v 3 . 3 3 ",
"G - H - O e S v y g r 7 ; ; y w a k.!.Y._.OX#X%X#X#X&X*Xq.q.q.4.>.q.w.q.h.$X$X@X@X@X@XoXoX@X@X!.i w r 9 3 , r r g u 2 0 - e i u ",
"J 3 y 3 o S Z Z g 0 q 3 y D y < 9 j.!.N._.OX#X#X#X&X&X#X&XXX/.XXXX]././.+X@X@X@X@X@X@XOX@X@X@XW.8 < w y y u w 2 g Z 7 i 2 y i , ",
"I t O y t S i v g 3 w 4 S i 2 & , 0._.Y.(.#X#X#X#X#X#X#X*X*X*XXXE.OX*X%X$X@X$X@X@X@X@X@XoX@XOXE.5 O 3 w g i 0 2 A i 0 g 0 8 v w ",
"G d 9 9 p D g 0 r 2 0 4 u r 4 < 0 8._.G._.OX#X#X#X#X&X#X#X#XoXO.N o.!.#X@X$X@X@X@X@XOX@X+X@XOXE.u & 6 u 0 0 3 2 y w O i i 9 i g ",
"v 9 q & 2 d q d w 0 0 , w r g g D 8.'.G._.OX#X%X#X#X#X#X$X#X=.@.n.X.#.@X@X@X$X@X$X@XOX@XOX@X@XK.R i h y < 4 0 4 i w 2 A 0 O y 9 ",
"m e w r 3 q 3 0 < 0 i w w y r d r 1.'.G.!.@X#X#X#X%X#X#X#X*X$.@.d.o.$.OX@X$X@X$X@X@X@X@X@X@X@XD.g 0 g Z h 0 w 0 , i g y u + g e ",
"m d y e r e i y 7 3 0 g g y : 9 w <.oXG.(.@X#X#X%X#X#X#X#X%X;.' z.` -.@X$X$X@X@X@X@X@X@XOX@X@Xb.g 3 > 0 R 2 w 0 # < e 3 t w y r ",
"z 9 7 Z y 9 y g 3 9 y y 3 8 Z 9 9 %.'.G.(.OX@X#X#X$X$X#X*Xt._ x.g.m._ 7.&X$X@X@X@X@X@X@X+X@X@Xb.9 9 9 - D y q r 4 g < 9 w g s 3 ",
"J y X e g 3 * d < i t 9 2 y D - < $.'.G.(.OX#X#X$X$X$X$X*Xj._ x.(.E.] 7.&X@X@X$X#X@X@X@X+X@X#Xl.- 0 e 9 r y t i i L 0 7 w < D g ",
"G P e 3 7 0 < O 0 h y y 7 x e x 7 } OXG.(.oX@X$X$X#X#X$X$X#X] ;.-X3.N `.$X@X@X$X@X@X@X+X+X@X@Xl.e - - > 9 q q 0 i i 0 & ; A G Z ",
"c Z Z s w s - O i g f v + r H Z e / OXN./.oX$X$X@X$X@X$XoX-.X.W.*X`.o.-.+X$X$X@X#X@X@X@X@X@X#Xj.y e - O t p 2 0 d 4 9 w e K G y ",
"j ; f 0 9 d q O 7 y g y 9 i : ; q ^ oXF.!.oX@X$X$X@X#X&Xy.$ X.S.*Xx.O.$ k.&X@X@X$X@X@X@XOXOX@Xy.t 9 e ; - s e 7 w e q t 3 D C y ",
"z 9 d X q 0 L 3 & 3 h Z y Z e e t T oXF.^.oX@X$X@X$X#X$X}.l.=.X./.] :.l./.#X@X#X@X@X@X+X@XOX@Xt.t t : e 3 y w 9 & 9 S 9 : S ; t ",
"b 9 w y y 3 e q q 1 9 d r 7 e r t Q oXF.Q.oX@X$X$X$X$X@X$X=X/.] [ _ E.=X$X$X$X@X$X@X@X+X+X+X#X9.t y t - r u 0 y * 9 e s 9 9 e K ",
"M y 0 * 3 Z 2 r 3 9 L e t 3 - w e B '.F.Q.oX@X@X@X@X@X$X@X$X$X/.U./.@X@X@X@X$X@X@X@X@X@X+XOX@X5.t 3 i 9 r g 0 w 7 2 3 q ; 7 d q ",
"G i 2 O O & 9 0 g , i i . 2 & e 9 b _.F.!.oX@X@X#X@X$X+X$X@X$X$X&X#X@X@X#X#X+X#X@X@X+X+X+X+X@X3.> ; 7 9 e g 2 4 g 0 r D e : y 3 ",
"S w 0 9 2 , u u A 3 7 7 & r r i y z _.G.W.oX@X@X+X#X+X$X@X$X@X$X#X@X$X@X@X@X+X#X$X+X@X+X+X+X#X2.f t - t & 3 9 e g y Z e ; - e 9 ",
"v y q u 4 E E 0 S 0 3 , O g g y S k |.G.W.|.+X@X+X@X@X#X@X@X$X+X@X$X@X@X$X+X#X@X@X@X@X@X+XXX#X1.K e ; - & 7 9 e g w e 3 e w S q ",
"8 2 e A y y 4 D A 0 q 2 & < w 0 d x (.G.W.|.OX@X@X@X+X+X$X@X@X@X@X@X@X$X@X#X+X@X@X@X@X+X+X@X#X1.t d ; t y w w d v ; g 0 4 D i w ",
"z 2 u i 0 0 & 7 9 y * - 0 i i w r F Q.G.T.|.OX+X@X@X@X@X@X@X@X@X+X$X+X+X+X#X+X#X@X+X@X+X@X+X@X1.r t d q r e e Z D e I 0 3 h u 0 ",
"G i i 0 < 3 8 7 q e & 9 i 6 y 9 3 y W.G.T.'.|.OXXX@X+X@X@X+X+X$X$X+X$X$X#X+X#X+X@X#X+X+X+X+X@X%.7 0 t 0 i d - 6 I i e & e h u w ",
"A g g g 0 2 a g p - q t e 7 e 3 9 8 U.G.6.>.^./.XX@X@X@X@X@X@X@X+X$X$X+X+X$X+X@X@X+X@X+X+X+X@X+.9 9 e S w ; 7 t Z ,.t 7 w y i y ",
"v 9 e A 3 * w 3 3 7 S Z 3 y d t 7 Z K.D.6.*.w.r./.+X@X+X@X+X@X@X$X+X+X+X$X+X$X+X@X@X+X+X+XOX@X$.; d y y s 3 3 3 s 9 3 d g A w - ",
"v e & t h g 3 3 3 e Z Z t d > - : 3 D.F.w.>.[.[.|..XOX@X+X+X@X@X+X+X$X+X+X+X$X$X+X+X$X}.+X+X+XO.- - 9 e S P H r 0 y ; S S 7 v e ",
"v e : q K e y 9 q y y d > + 6 p q d S.Y.r.6.|.|.|..XOX+X+XOX.X@X+X$X$X+X$X+X+X+X+X+X$X}.+X+X+X| ; d 3 + e D r : w 7 y e L 7 D i ",
"j - - - e - + d S 7 9 ; e + S g e I x.Y.T.|..X.X.X.X+X+X+XOXOX@X+X+X+X+X$X+X}.$X+X+X}.}..X.X+X .7 D h O e e 6 ; s g + - e y y 9 ",
"c e o 9 e ; o y Z e 3 3 t d D y 7 D l.W.Y.{.+XOX+X+X+X+XOX+X.X.X+X+X$X+X+X+X$X+X$X+X+X+X+X+X.X .e y S g p t e o h w o ; e w y y ",
"Z 9 r 7 + ; & a 3 2 7 e S S 9 - e ; i.W.T.[..XOX+X+X+X+X.X+X+X+X+X+X+X$X+X+X+X+X}.+X+X}.}.+XoX{ r - e S 0 w s = a * ; & y y 9 e ",
"H 9 t 5 4 y 9 3 ; & e ; d y ; & : ; y.W.Y.|.+X+X+X.X+X+X+X+X+X+X+X+X+X+X+X$X$X+X+X+X+X+X}.+X{.[ - + q t X 0 g h = = q q r y 3 3 ",
"H e w g g g 1 = * 0 x t e e g t 5 3 t.^.T.|.+X+X.X.X+X+X+X+X+X+X+X+X@X+X+X+X$X+X+X+X}.}.}.}.+X{ 6 7 q q e y 9 a * = 9 3 g g * 2 ",
"I d 0 9 g u 4 q e e d ; - y g w r e 3.Q.T.|.+X+X$X+X+X+X+X+X+X+X+X+X+X+X+X+X}.+X+X+X+X}.}.+X+X^ 0 8 w 9 e 9 w 7 r r e t w d 9 r ",
"m e e 3 h r 2 u w 4 H t 7 e t 9 y g 3.^.T.{.+X+X+X+X+X+X}.+X+X+X+X}.$X+X+X+X+X+X+X+X+X{.}..X}.B p y Z # O + e 3 y u 2 r , & & - ",
"n 5 S ; ; 4 , g g y y 7 ; - w 0 q w 1.^.T.|.+X+X+X+X+X+X$X+X+X+X+X$X}.+X+X.X+X+X.X+X+X}..X{.}.V q q 0 7 3 O 9 0 g g - 0 3 & r i ",
"J - S + X i y i g y e 3 9 g t 9 q 0 -.(.T.|.+X+X}.+X+X+X+X+X+X+X+X+X+X+X.X+X+X.X+X}..X}.}.}.}.B 0 0 r w 4 6 i 4 y i 0 i + d v 2 ",
"I 9 - r : K Z y - 9 y 3 g h i 0 o 3 %.(.T.{..X+X+X+X+X+X+X+X+X+X$X}..X+X.X.X+X+X+X+X}.}.+X{.}.U & & 9 y A g y < D Z 0 S 4 9 i 4 ",
"Y d ; 0 f S A r 3 S S & g , & 0 @ @ $.|.T.{.@X.X+X}.+X.X+X+X+X+X}.+X}..X+X.X.X+X.X.X}.}.}.}.}.M - & 2 i u 0 9 2 g 0 2 i u r Z g ",
"F t t ; 3 h y 0 & 7 9 & h O 3 D g r +._.T..X.X.X+X}..X.X+X.X.X+X+X}..X.X.X+X+X.X.X.X}.}.}.}.].U D 0 i i 9 0 4 2 y 0 @ g i 3 r y ",
"c 9 y 3 - w < 9 + 7 9 9 g y y h g g  .|.T.{..X.X+X.X.X.X}.+X+X.X.X.X.X.X.X.X.X.X.X}.}.}.}.}.].Y g i h y w 0 w 0 0 g y A u X g 7 ",
"J y t r 7 q r y 3 3 2 d g d 7 e 0 7 { |.Y.{..X.X}..X+X.X.X.X.X+X.X.X.X.X.X.X+X.X.X.X.X}.}.}.].l g 3 e g D , i 9 @ 4 w q r 3 y y ",
"j e r x y 9 y g 0 X 8 D e 4 e w q e V |.Y.{..X.X.X.X.X.X+X+X+X.X.X.X.X}.}..X.X.X.X.X}.}..X}.~.z w 9 ; 3 D 8 r 9 4 0 * 3 w f s 4 ",
"H 9 - d d ; 9 g & 3 g y 2 r I - 3 r V (.Y.{..X.X.X.X.X.X.X.X.X.X.X.X.X.X.X.X.X.X.X.X[.}..X[.~.c & y e ; g y q i u h 9 0 w t g 0 ",
"J D O 3 y 4 & 9 0 g y 9 7 x y 9 ; - U {.Y.[..X.X}..X.X.X.X+X.X.X.X.X.X.X.X.X}.}.{..X[.}.}.}.I.b 9 - ; > 3 w t u i D 0 & 9 ; - S ",
"m I d e 9 y 3 . 0 h d g + y x S e 3 k {.Y.|.|..X.X.X.X.X.X.X.X.X.X.X.X.X[.}..X[..X{.}.[.}.}.I.V C ; - - 3 q 3 e g r 0 < ; e y C ",
"z 9 d d w d * O y y d y 2 y r r t 9 j {.Y.{.|..X}.{.}.{.}.|..X.X.X.X.X.X.X[..X{.{.{.{.[.}.}.P.c e q ; + - s r 8 t 3 7 y w d f y ",
"k ; f & < y h ; - y S x y H : ; t 9 m [.Y.R..X.X.X.X{.}.|..X.X.X+X+X.X.X.X.X.X.X.X.X}.[.}.}.A.5 t t e e 3 p 9 3 7 9 e 3 ; y e e ",
"c 9 d 3 y 0 h 9 1 * e S r r r e t e j ^.m.Z.J.I.Y.R.I.I.I.I.U.U.I.U.U.I.P.H.R.Y.R.R.U.I.U.].B.7 t t > : 4 i w e * 1 d y e C e d ",
"c 3 q w r e * 0 e q d e y 9 7 r e r v ~.f.d.g.n.g.g.g.g.g.g.g.g.h.g.g.u.d.g.g.d.g.g.g.g.h.I.s.9 y e y 3 e i 0 w 3 9 w t * 3 t h "
};
