/* XPM */
static char *_069ca13bc0d4a3cfc1f341fcd4043f7e0pz6FfKtwKDVS4G[] = {
/* columns rows colors chars-per-pixel */
"64 64 118 2 ",
"   c #0E2B07",
".  c #123706",
"X  c #14350C",
"o  c #1A350C",
"O  c #163B0D",
"+  c #1A3D0E",
"@  c #1C3D11",
"#  c #203E0F",
"$  c #213E12",
"%  c #16400C",
"&  c #1B430E",
"*  c #1D4B0E",
"=  c #1F520E",
"-  c #1D4412",
";  c #1E4B12",
":  c #1F4B18",
">  c #1F5012",
",  c #21460F",
"<  c #214C0F",
"1  c #20500F",
"2  c #224513",
"3  c #234C14",
"4  c #294D16",
"5  c #254419",
"6  c #284618",
"7  c #254C19",
"8  c #2A4E19",
"9  c #245315",
"0  c #295416",
"q  c #255A15",
"w  c #2A5B16",
"e  c #265419",
"r  c #2A551A",
"t  c #265919",
"y  c #2C5B1B",
"u  c #31561D",
"i  c #315D1D",
"p  c #395D1F",
"a  c #276017",
"s  c #2B6116",
"d  c #276318",
"f  c #2D631B",
"g  c #2E691C",
"h  c #32631D",
"j  c #39641E",
"k  c #336A1E",
"l  c #3A6A1F",
"z  c #2C4D22",
"x  c #2D5322",
"c  c #2E5D20",
"v  c #325425",
"b  c #335D22",
"n  c #345A26",
"m  c #365A26",
"M  c #365A27",
"N  c #335F25",
"B  c #395B26",
"V  c #375428",
"C  c #345E2A",
"Z  c #375E2A",
"A  c #365E2B",
"S  c #3D5E2B",
"D  c #3A5D2D",
"F  c #2F6120",
"G  c #2E6220",
"H  c #2D6920",
"J  c #326320",
"K  c #366122",
"L  c #336521",
"P  c #336422",
"I  c #356721",
"U  c #346125",
"Y  c #3A6522",
"T  c #3F6522",
"R  c #396124",
"E  c #326921",
"W  c #356B22",
"Q  c #346825",
"!  c #366826",
"~  c #3A6D23",
"^  c #3A6A24",
"/  c #3A6A25",
"(  c #396C24",
")  c #3A6F27",
"_  c #376029",
"`  c #34632A",
"'  c #37652A",
"]  c #3B6529",
"[  c #38652B",
"{  c #3B642A",
"}  c #356829",
"|  c #38692B",
" . c #3D6B2A",
".. c #3A682C",
"X. c #3E682D",
"o. c #3C6D2C",
"O. c #367122",
"+. c #377324",
"@. c #3B7226",
"#. c #3D7A27",
"$. c #3D732A",
"%. c #416F23",
"&. c #416A2C",
"*. c #467227",
"=. c #407826",
"-. c #42732C",
";. c #447A2E",
":. c #416B33",
">. c #416F33",
",. c #407133",
"<. c #467633",
"1. c #447037",
"2. c #4A7734",
"3. c #457930",
"4. c #467B36",
"5. c #467E35",
"6. c #497239",
"7. c #468032",
/* pixels */
"1.] v n z 5 n { 2.v D :.6 B n Z I v [ ` J M ..4.n X.>.o.n 8  .A W | B v N 5 8 A <.{ z 6.x r B B J N n ] N N v 5.A A X.o._ z N ` ",
"J r w 3 2 j j r h 4 u 8 - i n f J - 7 & O 7 y K J y x ; 2 9 s 2 a r r 0 2 4 %.r j r 4 n @ 8 j r E 8 - ; O 2 e J J G c 3 e ; f 3 ",
"u 0 q R u O.%.j / r w , + y j 9 H 3 ; 9 3 r 9 y t ; t 3 w / h w , 3 q i p k ^ B ( i w 0 - & @.0 f t ; ; 9 9 w w n ; 9 9 0 j / y ",
"8 & 0 i r r + h y r < , 0 < 9 w c f > y e r h E t y ( 2 h y 4 0 + + 2 h w i , r h r 0 % 2 3 < y y y t y r r f k L 9 ( r 9 h 0 9 ",
"n 6 p y 9 0 2 2 9 t @ ; 0 u j 9 9 f d 9 i * 7 } U r f - d + O f y 2 u h 0 0 3 2 > d 2 % t 8 y y 3 r f t y e 2 x X.e f 3 3 y   0 ",
"&./ y 0 2 4 i y d 3 ; q i 4 y 2 2 - y y k 9 7 t 3.I 3 & f t e k / p %.f f - r y f q ; > f 7 r 8 r 3 ; y y y r 3 $.-.e - q J 3 d ",
"n w J / 0 * w y q ; f h 3 3 y y - 9 y y - 0 f 0 W f r y k h r y r 0 y y r 0 3 h y ; e k 9 3 r e ; e r h 3 - @ q y W e y y h k 8 ",
"b 9 ; y & * f - ; 9 W b 9 f y t + 0 0 t e k y 9 r ; 9 k K b 8 ; f 9 * w 0 & a 9 - e y E e y s 4 @ e y 9 9 y x t w 0 & k I J r @ ",
"N t - w ; q / r + r y E t f y - t 9 r ; t r x e e e t o.i 7 ) 9 = 0 3 9 q ; k W 2 2 y W t t y 3 ; 9 r 3 9 c b z 0 w e G @.2 W J ",
"n 3 3 ; - 0 f -.y c 0 t 9 x @.; 0 W ~ 7 y @ 7 > y t - y h r I 3 ; 3 9 2 - 7 q #.n h r t e 7 $.y ; E y @ e e - 2 t 0 7 - E r J y ",
"z ; O - y i 9 k @.7 7 - t <.c c r $.#.h 9 y - 9 O.9 O 9 3 y 9 J e - & O 8 y f 9 #.r 7 ; ; -.A G 3 W O.2 t 9 r - g g + ; 3 q w e ",
"N 3 - t 7 k 9 y r 9 ; t J $.r W 2 t y f w f - 3 f % % 7 y q c f t e - q 3 r s 3 c e ; 0 r #.N J r 7 y k w f q % g 3 O * t q y b ",
"} > y 2 # h * w - 9 f - J k t r - ; f e < y d q w 9 = 3 y 0 3 3 e q 9 y o r w * i 9 s ; e W f e 7 @ q g & 9 h q q q 9 * r r 9 2 ",
"` 9 t e r f 9 * ; W t 9 c e 9 7 2 9 g - 9 w E q * * 9 q i w * 9 > e y r r i 0 9 % w E e e W ; t - - f e - w w ( * * = 9 y h ; 9 ",
"$.y r W i u r w 9 9 y t 3 9 E f 4 2 q y r 0 2 0 9 q > 0 / a ; r f c t s I i 0 r & 9 9 y ; 9 y O.8 6 t w y y 3 9 9 q q 3 L k 9 3 ",
"o.b 3 2 l i 3 y y 2 f ; 3 c t w r i y @ - U r 0 r - O.f 3 9 - y H t n % y / 4 r 9 2 y q ; e J > y r h - - ; f 0 i + y O.3 9 ; 3 ",
"n 7 t e f 7 y E r r W y 2 - f 9 q y 4 - 2 X 3 9 / 4 2 o.. & 2 r 3 8 e e q u & 7 r y J G 9 @ y 3 w y r 2 < + 3 3 h i + i 7 . 2 3 ",
"D - O.; @ r E b y J e 3 ; > y w a r 0 0 $ 4 j r j 4 r B ; y b r t 2 y c . 7 4 0 J f c ; ; - s 4 w w r 0 2 2 r r h i 7 r 2 t i u ",
"o.3 t 2 O ( E K y 9 0 3 y / f < 9 w y i u ( *.u E r 3 4 2 I 8 < W t 9 r o 2 i h J ; r 9 r h E 0 3 < w y r i 0 4 h K 0 r 2 y n , ",
"$.t @ u y W i i j 9 w 4 I i 4 O , w 9 i r f & p R 0 h i 3 y b 0 y d < 4 r y h u b ; i 9 r / 0 w & + < y h y 9 4 W i 0 j 0 3 K w ",
"] f t 9 s E Y 0 r 2 0 9 y 0 4 < 8 0 - 0 r q , 4 K & 2 b b 0 I e e y d 3 y i 7 3 w 3 3 3 e 9 X y r , 4 r r 0 3 2 w 0 + u i 9 u k ",
"n 9 q & - f 0 s w 0 r , 0 r j h ~ j i r < 0 4 r l 2 u j 2 ; r e 2 e t 3 + y 0 9 2 - 9 & f y - g *.i T r 9 3 0 4 y w 4 Y r + w 0 ",
"C e y r 2 w 3 0 3 0 i 0 y h r f r y f W w 9 r = 4 l s i 7 2 k 7 2 t 0 g 2 y 9 9 2 2 w r s f i y y 0 f k h 9 i 9 , p f h u + f r ",
"A f t r t e f y 3 3 0 k i w - t y 9 ; Y u 4 y 4 + q 2 0 y w f 2 - G w r r 9 r c y 9 + 9 k r 9 - h 9 > r *.- 0 9 # ; 0 ; y t y r ",
"x 9 7 L y 9 y f 2 0 y y ; r U 9 < r - r k r y 5 i q 2 w s G w 2 2 ; ; x E 0 > k 9 % 6 =.0 2 2 t 9 9 e - ~ y e r 0 f < 9 q k y 3 ",
"o.y X e E < & k = i y 9 2 n ( - < 0 9 9 r y f y ~ k 3 q > 8 #.2 > k 2 - L i X f 9 9 y 0 3 1 k r O r 9 > r t s y i @.0 9 w < / h ",
"X.#.8 ; 3 r < + 0 I y y 2 c e G 7 % ; > q q q r h i < ; 7 &.L G 9 ( E - 9 3 0 & 2 j k t q ; > t t - - > 9 q 9 0 b p 1 & ; I ] L ",
"x L G f w f & O i k g y @ e Q Q t 0 X ; f 9 4 r r 2 y w t 3.r O.7 c G f 0 t t + 2 ~ t k y 3 9 t f e - O f w 4 0 f 7 0 y e o.I y ",
"z 9 g w 3 f q + 3 y k r 9 c 2 : q 9 t - > s 7 9 w 2 7 e t W c x 8 & q g * 0 3 & % f y k 3 y t - e t t - ; a 9 7 w 3 q t 7 W E t ",
"z 9 f O 9 w @.9 & 3 E E y K e 9 t 9 e 2 e s t ; 7 * 9 e t f ; 9 - - g 3 + f e q & ; w @.t h n 7 t t 9 3 2 f y 9 & t W 9 ; W 3 e ",
"V 9 a y y 7 9 q q 9 3 f r 3 8 r t t 8 - r r r 0 8 r y t ; e f E 7 7 q w t y x w 9 w ; e L 2 8 e t y t - 0 r r r * 9 t t 9 e r O.",
"S r 0 - 3 U 2 r 3 9 O.r e 9 ; t 9 e L ; J h 8 r - r b > 3 r f q r 8 y - 8 9 y 9 y - k L e 9 9 9 e ; b 9 0 ^ r r 9 2 3 t ; 3 f q ",
"{ i 3 + - + 9 r j 2 b y . 2 + r 9 5 r ; h r 3 O.2 r ! G 9 2 f 2 f y r @ , + 9 r ^ r 2 $.w 3 0 3 0 2 8 9 t h 2 3 E 0 r O.e - y 9 ",
"W r 0 3 $ 2 r u I 3 3 4 & r r y y - e 9 % 8 G Q c f c 3 ; ; w 4 w y 0 3 7 # u r ( r 2 ] 2 w 3 3 s e - t - 2 9 r j r G 7 3 - 0 e ",
"b r q i 4 =.%.r I r 9 , + k l w W & ; % % 0 w i b t 9 3 r i h 9 9 0 y y 4 h 7.p h r r 9 O < ~ 3 W 9 ; - & 3 9 0 h t r 9 0 0 W 0 ",
"r 2 0 b i f 3 *.W 0 q 2 & 2 q 0 G q & 9 9 2 y r e ; f 4 h / w w + & < k u j < i @.u r ; 9 9 w q y f ; t y 0 y f b ; f 0 9 / h y ",
"z 2 u i w 0 & 9 3 y & - w i i 0 y s s f 2 - i w ; c ^ - f & + y 2 & 6 0 w r 4 , ; q y - 2 j y f t t d y 0 9 e K W e X.0 2 k r 0 ",
"&.i i 0 2 3 4 3 y 0 % 9 i 5 i 9 3 0 f r f - 3 q q 7 9 % E 2 - k / u j y < < 0 7 t q 8 - f 8 r r 3 r y t y f 2 7 -.y 0 & t k r h ",
"_ k i k w 2 f E s ; w s 0 7 9 3 t 7 r y f y 9 q a k r 9 f G y f r h k y w 3 r k s 9 9 f y 7 r 3 9 e r J y 3 2 t Q 5.y 3 w y i r ",
"n > 0 K 2 * w 2 ; 3 E b 7 t f y ; i y e y E y 9 9 0 w f h r ; 3 s 3 9 u 0 < 9 0 ; 3 y / 3 9 y J ; y y f f ; ; 9 w t 3 f k R y - ",
"b e - y k h 3 2 3 e L G t f ; - - 3 9 7 O.y ` 3 e 1 w k d 3 ; t q 0 ; 9 q * k y - ; y E t H w 3 - ; r e g #.| x 9 w ; f W 8 n e ",
"K r ; q O.e t 0 q y y G > - 7 y q f I - W 2 5 9 w e e f k 3 r 3 < 0 3 3 > 2 s ;.7 r y L t 7 y e ; d 2 @ r W y 2 f 3 c e @.7 / f ",
"z - - - e - - f W 8 7 ; 9 @ W k e #.i 2 e 8 7 9 f y X t r y 9 - e 3 ; - 2 r f f $.G 7 2 ; y 7 G 8 E k @ e e 7 2 y f - - e y w 9 ",
"c 7 O > e - O f G e 3 9 t J W y 7 W E y q J @ ; W * O 9 9 y 3 9 t f O ; r i y 3 W e > 0 9 ;.n L e t W f q y e O k w O ; e y y y ",
"} ; e 3 @ ; * s 2 2 e 9 k W t - e > s h 9 w q 9 s * * 2 h 9 3 t y e 2 y @ r s ; f 9 7 e 9 g f c x - t g 9 w s * w = * * y y 0 e ",
"` 9 y 5 6 y 9 3 ; - e ; G y * % 2 ; k & ; 0 W q * 9 9 9 r y * t ; t 9 y $ y 0 * 2 q J ; 9 G 3 9 - @ q y O 9 k k * 9 9 0 r r 9 3 ",
"} e y k i h * = * 0 G t 9 e h y 7 7 s e r 9 w q = = ; 0 ^ q & 7 t e t f L L r w * w s t 9 t r L 8 2 q w r y 3 f = = * ; W h * - ",
"$.h 9 0 h u 0 w e e f ; 2 r f y 8 e 0 9 r e 2 0 r t w y h q r y H G y 3 y j 4 r ; 2 y 9 ; 3 G d r 8 w 9 e 9 y 3 r 0 0 y y a t 0 ",
"` r r 2 k r 2 u r 3 Q t 8 9 y > s i r + - #.y 3 j L 2 h y ; e e t 8 r ; f h 2 W 0 2 y ! 8 7 k * a y K - % @ 0 3 y y & u , % % - ",
"n 2 G : ; 8 & j f i c 9 - - y 0 q y 4 3 ; 9 f 0 f W r 3 - c i u ; 7 r J & 8 r E y e h e ; O 0 4 w t 0 4 2 + 9 r I i 2 r 2 * u b ",
"X.- W - O i y u h y e e 9 f y 9 w 0 y r r e r f I r y 8 X t i 2 W ; y y X 3 f r I f r 3 9 e d 9 0 9 r w 4 4 b 4 y i 0 y 2 y i 4 ",
"o.t - r ; @.h y - 9 r 3 h ~ y 9 % 2 9 K i t e & r r f y - y r 0 f d & r 2 G h w e & f 9 r ( j s - , 9 t R h y < / K 0 W 4 9 b < ",
"X.f ; 0 g L Y r 9 W W 2 k , & r O + 4 j 0 r ( y r 3 0 p r y I 0 c f q 2 f g 0 3 e t $.4 e y 2 9 & + , i 0 r 9 , i w 4 u u y b h ",
"L y y * ; k y r & 3 0 O h O 2 / j u p y 3 3 y & y 3 0 j r 2 b r 3 e f 3 * y 0 3 9 - y % y f u y / 0 p i 9 9 3 4 y 9 + j i 2 y y ",
"v : y ; 2 q 9 9 + 3 3 9 G y y k i h k y 0 9 t & 4 f w j 2 ; y 9 ; e t w O y 3 0 @ - 9 ; y f y k h h l y r 0 y 0 r j r / r O f 7 ",
"..G f r 3 q r y 7 3 2 f k h 3 w w 9 e ~ u 3 0 4 o h w r r 3 I 2 - J w y e 9 y r r ; 0 i k i y ; h 3 t i %.2 y 9 + 4 s 0 r 2 h r ",
"z 0 y x y 9 y k 9 O 4 / e r r 0 w r & b i r e 7 3 w - w y f r 7 @ 7 0 r y > 3 k r 3 0 / y 2 3 7 s 9 ; - / r e e 4 9 9 2 q g y 9 ",
"' 9 - G f ; 3 g * 2 h y 2 r $.% 3 t ; 9 L 9 I r E s 3 w w r k - t q k r G y * y w 4 f h w 9 y e & r e ; h r t i p k < 0 a t k 0 ",
"o.@.o 7 y 4 * 3 0 Y y e 8 b y t ; - q ; 3 t f t E j < ; 9 x @.t ; / $.n r r 9 k y i f 9 9 9 s e 9 - ; w 3 w y y y ~ 0 < 0 - @ E ",
"C @.h q 9 t 3 o r h d h @ t J G e 3 O 3 f 9 3 y i 0 9 3 e 3.x E 2 W #.3.0 0 w 2 N f f f 0 ; f G f 3 - O 9 q 2 e h 8 0 < ; e y L ",
"z t s f w g * + i r f i - y v r q ; ; - t s 4 y w 2 r y c #.x W 8 3 q g q s q + 3 y w k 3 2 L e e w ; & - f r r f 3 7 y q f G f ",
"z ; k % = r k ; & y E f t ! ; ; t e t ; t s 2 3 r & 7 ; r k e > - % g 0 + q k w O w f ( t L e - t e t : ; s 9 2 2 9 e 3 ; s e e ",
"n 9 f 2 y 9 k 9 * = t Q r r r e t e 3 2 e y y ; e ; r t e y t y 2 7 f 0 9 w r k * = ; G G 8 e 7 e t 7 ; 0 y y q * 9 y t t G e f ",
"v 9 q y r 8 * r 9 w y t y 7 8 t 0 r f 3 y r 8 r - N G ; ; 9 f g 6 7 9 0 t r 2 3 y ; f e G 9 9 e y 9 f 3 0 u 0 r ; 9 w t * ; y k "
};
