/* XPM */
static char *_4dd5949a3a44c08b8f38038b0d7cb26OX67MFC6OhQs4rrv[] = {
/* columns rows colors chars-per-pixel */
"64 64 91 1 ",
"  c #8E8E8D",
". c #8F908F",
"X c #91918E",
"o c #949494",
"O c #989897",
"+ c #9C9C9C",
"@ c #9FA09E",
"# c #A0A09F",
"$ c #9FA1A0",
"% c #A4A4A4",
"& c #A7A8A7",
"* c #A7A7A9",
"= c #A7A9A8",
"- c #ABACAC",
"; c #B0AFAF",
": c #AFB0AF",
"> c #B0B0AF",
", c #AEAFB0",
"< c #AFB1B1",
"1 c #B3B4B4",
"2 c #B8B7B7",
"3 c #B6B8B7",
"4 c #B5B7B8",
"5 c #B7B9BA",
"6 c #BBBCBC",
"7 c #C0BFBF",
"8 c #BDC0BF",
"9 c #BDBFC0",
"0 c #C0BFC1",
"q c #BFC1C2",
"w c #C3C4C4",
"e c #C8C7C7",
"r c #C6C8C7",
"t c #C8C8C7",
"y c #C5C7C8",
"u c #C8C7CA",
"i c #C7C9CA",
"p c #C9CACC",
"a c #CBCACC",
"s c #CCCBCC",
"d c #CCCBCE",
"f c #C9CCCD",
"g c #CACDCC",
"h c #CACFCD",
"j c #CBCDCF",
"k c #CDCDCC",
"l c #CECDCD",
"z c #D0CFCF",
"x c #CDD0CE",
"c c #D0D0CF",
"v c #CBCED0",
"b c #CDCDD0",
"n c #CECED0",
"m c #CFCFD2",
"M c #D0CFD2",
"N c #CED0D1",
"B c #CFD2D1",
"V c #CFD1D3",
"C c gray82",
"Z c #D2D1D2",
"A c #D1D4D3",
"S c #D1D3D5",
"D c #D2D5D4",
"F c #D2D4D6",
"G c #D3D5D7",
"H c gray83",
"J c #D5D5D5",
"K c #D4D7D5",
"L c #D4D4D6",
"P c #D8D7D7",
"I c #D6D9D7",
"U c #D5D5D8",
"Y c #D8D7D9",
"T c #D5D8D9",
"R c #D6D8DA",
"E c gray85",
"W c #DADBDB",
"Q c gray86",
"! c #DBDCDB",
"~ c #DADBDC",
"^ c #DDDDDD",
"/ c #DEE0DF",
"( c #DDDFE0",
") c #DFDFE0",
"_ c #E0DFE2",
"` c #DEE0E2",
"' c #E1E1E1",
"] c #E2E2E3",
"[ c #E4E4E4",
"{ c #E5E7E9",
"} c #E7E8EA",
/* pixels */
"6>-ww7wttttww626ewMCCtww7kkttCk5tJNDNk6iMttkCC3wCUSMnSMnkkCxt2kJ",
"1>32w7w7wtwwe766ewttwzJz6zzCClk2twkNrr1wezt61-1wuMJSMDVSCJJJt3kt",
"6-+O+++O++#&;12>6wwPCe7w2lJCwzt2tntkxw16626ctw6;%OOoo+OOOoOOO-Ct",
"&>ooO%&#&%-;11->&@o+---;-&OoooO%wJCtrl5-2w02wtw666116;164062->MS",
"o-8827kkte_PPPJewetwtsykkkwuwwzwwgNrrr1266w07w6JzU_WUueW!Rki62CC",
"22>826tke161tCC7WWWPNMtauznkzLJwAixxgg3iNaSSCWwwaaMws76etgitt6tk",
"21>767wte-&11323uzJatSSannSCeJ[srxiAxw6xivaaJn6kesyww2602i`WJ2tk",
"222777rtt6w0w^k1wwww00uaSLgMMJ]tcAxxxx6gvgvnNk3kavysewsJr12RD2tk",
"211277ee72zC0wt2w66w666uyvDvigRNHxAART8CigkgiN3wnMeyt2tJCN06w2wg",
">-162676w23tw%;10wwtee9wq6qww6w6wtwwqw3gggvNw266us7ww1wCtgJWw3tx",
" +26w6wwtw1#&6--@&--*--&%++O++%-OOo.oO-NDNvi6w8rsttJt39JCstwk2CC",
"6%&17weck6wttJ^CelzwaswtJUUuwiingJWCK^qgagNagA6-##6611$+-&#+%-++",
"6;--27wwewsttwCClllktk9iCNiqinu^Dg)`^S5ivvVDRG6wesknaq9quSS9wWCk",
"73->2067w2kttstMPRnkky6iNviiNiw]UDngng4iNiyqvi5NSCq644559in9wRAn",
"62>-36w611wwwtezLMCkkCwyVVGDSk2tkURiqq4vny699q6NSviq9iNvviq51<2i",
"762676661-etwteesWCCJ]wwnGRDAt6UDSgw95<VVviqiw6NVSRDRVynNunw6q66",
"6612w6ww21twwetken^)CJwwSsuRDy2SvVU^vw5NniSDNgwNyavRVnivV)^yuvw6",
"2332267671wwwetwwwuzJw27uw9qni5ayvinDa<@=15ynr1-<519yiy91-,1vnNg",
"X%o  Xo12-XXo oooOOo+-1-O%-%+%*OOOO+-2636waAICiqqq9qqivu9wwwVRNn",
"1&6w7wwzkewwwwkz2wwkwtCtwkkSnuw4NgiCvai`UWAD^JGDGRSGyVGVwuGwiRUS",
"6&26w7ePJJJJCJDN6w6qtswws])]^YU6CJkJDgqVUCngG`)RDGvv9R`(Dywqn_^N",
"7&16w7weJ]{^WDgg666intsuwDy22W]6NNwwgv6DDSNvN~!SvVFf9yiiUkywagNv",
"w%-;6ew2-%--2wkiqRvwnNJu42,2<,61iinwVn5iVVNDGvG(Rm((99qinNN6qqan",
"2>62wwewww622tzw6wyiins66wwqu911iiywvnwgGGnVGSV){)GF9vvVvvRwinig",
";;766wteztzCwwNwwGgiuqVtqDANvaw5iiuqwAwNGVGVGDVR[{!awDDnSS)uiNSN",
"1*1667teekeltyuw6vNiiyRU-3qannkw115,$55=---,<*--*,<16641%%-<1%$%",
";-&%oo#-22762%++9CiaavgiyARRDwwvRNDNkkq556qww5*-*6iUv1w6260aw2ii",
"772w66wwwkkenkCa6CivavvwtSJNv^^RCNiNNNqNGvwR`DCUvygUy6VNnNAgw8ig",
"6-;27ee76wzeett05tauaaawwJSNvRNVN)R(RGiyvywwG(VGnVv61qvavivVyqga",
";--%&;ww26wsattw3CntaavquSSNnnvGGV(RGGyvvnvVVFy)RVq566iviaNgqrRD",
"16w726tt23wwttae1tnsannqwNVNDSnNviv!G)iNaSSG(viRRyVGg9GRvgiiiiTv",
"26ww7eCte6weuwew6MaanCNq9SGSyywqqqqf)RiVSVGGGvi`VGN)RqvvURiqqiVv",
"%O%*-&-2a91uu269-6twwwi95wy656wyqwqyqwyVVViwwwqDwk^RViiv!uqgq6VV",
"1%16ew6ewq1wnu961*=%==*<<=%2696596q4=<wiiq5<%161<2225iVGVnDVi49q",
";-2wektewwwwuuaw0CWJkkniiw9yJJvn``(RVGvnD^R^ywUR]]UGvivvvvvNi5<1",
"6-36wCJz999agUWg6MCSiaviyNw49Sqi{``GDVwqgNvGu<iNA``^NyGVfVv^vgJV",
"2&277wCzwwyaaNgw2kuMDiNiyNNyqv6q~RTVGGiq5vNDvgyqgiR[GygVviR!gqNv",
"1&166wuwwstMyvVw2tiwqfvyqqwiSN99VVvvNNivwvNGyiviw66qqqNiVVGWnigN",
"7-266wwwsMssiggy1gg69yRgvJVVun6qGvfVFDivGNNnqyiVvgyw6wRnavNUgiDn",
"7-2wwwu92221151<6ayvwqNwqyw1%==14<4<416RGNnvivVVUU^Gq<6669qq6i~N",
"6&20w266%+=-&%+%5vvvNNvq6nLnsew,66421<5VNVNVqya9wNCAw-**=*-<1qNn",
"%%672;62wwk^WSa65vvDNDvq9uawuu5iRGURGG6yVVvq5,%==&-51yRVnNRGq5NV",
"6-166221kk58^UCy5VvNvuVi0uuauy5yivvq9y49NNvw9yvVDDnVqqVVVVGn66va",
"6&;277617kw1k~Wq5kVnCVi69wunig65viiiia54qivvyqyyiNvi5q((RRRRy1wv",
"2-667w711ttuk^w16nvviti910naia95yuq9iv64qviNiqqyviVN65VVGFV`N<qi",
"61676we22wwq<gWg9niuvVm9,4vSDF95qyviiay9qguGiq9gnVVy55vvvggVy6yq",
"t-277ww3ww51*2[R4unvnSGw95yUa4,tSaygvFiy6yVSyqqyigVUy<qfnvVVqyVG",
"%&%-;-;;2txJw16i-=--*,1ys2-*,429vvniyvwi5==19qvgvvvVq,<<===-46<-",
";1232ww717tte2-&wnCnJCnSY!nCkt99iviViv5GVaavivViingvyyvyiviyVTvw",
"11267762wttewtMt2utkCJUkusyURnqwivGVvy4qVGVvqfiyavvNq9vivDNifygv",
"2320626;6wwtwtw61eu0uyikkaauvRqqvyVvvF5qiNvy5ivVVv446qvinvyiyyvn",
"w6227ww;7zCtw6k76MuaunaisyvnivqqiNVRUi<yvy9y9iyvviyiqwRGnGNivDNS",
"tCttsMt27weHzwz66t69qwkNuiityv5iSgnvyy<yiyii55vfinRRyqRDvN^)!RGV",
"&-;67ww1wewszMe6-65599wwiiviyw5qviyiiy<yvRSv919yNnGD95vvVngvivgi",
";&*&167322twwwe1<9w6q9w6qaw545wniaiigv4qyVDGy9qiygVy4qfgviyiiyuq",
"1---#&*;-%###&-122w22531*-=-15a656-*<<6<-%-2qq4<-1665--%%-,*===%",
"6wlttwewCWW2ww6ttzz27wrCxN4w^[)D^NNNNDngV6y`(TGGNgT!RVN8<qrgxNiw",
"3>326666wwt1cCte76w16768ii19viqvywiiwyqyv59VGNviwyqqNNBqqq4<5ixw",
"3>1276w2776-wte2wwc16tw8rw45iy9qyqyqyvgqf<6qqyiqwiiffNW85ii81<xI",
"-->-17767ew-7www21--7trwqg54iiy9<455qqq6q<4gfiiiiiiyq6815qiNx318",
"1--<--677wt16112w7236xDgwx44yqqyivviqyqyq<98qyyviyy6qq5<ww8i8irx",
"1&:53;2777w-&;212w63ww65851556ywvnviqiyiq1<5q546q5qq55q18wwryrrq",
"-1::11;16w72tzcsww2r6-->-==qwqwiwyyqqyyyi5<<*151<%-<5611::-<63<1",
"66552671---1zCCzkwtkW^`/ANi8wiww54qw966q65ggiNGVVqD``BNrxr6rggDD"
};
